<svg width="150" height="20" viewBox="0 0 150 20" fill="none" xmlns="http://www.w3.org/2000/svg">
<g clip-path="url(#clip0)">
<path d="M50.9567 7.44629C50.8176 7.05322 50.4359 6.77404 49.9842 6.73687L43.8494 6.22813L41.4236 1.04254C41.2447 0.662506 40.8373 0.416504 40.3847 0.416504C39.9321 0.416504 39.5247 0.662506 39.3459 1.04343L36.92 6.22813L30.7842 6.73687C30.3334 6.77493 29.9527 7.05322 29.8127 7.44629C29.6728 7.83936 29.802 8.27049 30.143 8.54226L34.7802 12.2564L33.4128 17.7575C33.3128 18.1619 33.4847 18.58 33.8521 18.8226C34.0496 18.953 34.2807 19.0193 34.5138 19.0193C34.7147 19.0193 34.914 18.9699 35.0929 18.8721L40.3847 15.9836L45.6746 18.8721C46.0617 19.0848 46.5497 19.0654 46.9163 18.8226C47.284 18.5793 47.4557 18.1611 47.3556 17.7575L45.9883 12.2564L50.6254 8.543C50.9665 8.27049 51.0967 7.8401 50.9567 7.44629Z" fill="#FFC107"/>
</g>
<g clip-path="url(#clip1)">
<path d="M21.1997 7.61792C21.0605 7.22485 20.6788 6.94567 20.2271 6.9085L14.0923 6.39976L11.6665 1.21417C11.4876 0.834137 11.0802 0.588135 10.6276 0.588135C10.175 0.588135 9.76766 0.834136 9.58879 1.21506L7.16293 6.39976L1.02717 6.9085C0.57634 6.94656 0.195571 7.22485 0.0556207 7.61792C-0.0843297 8.01099 0.0449177 8.44212 0.385956 8.71389L5.02313 12.4281L3.65574 17.9291C3.55568 18.3336 3.72758 18.7517 4.09505 18.9943C4.29257 19.1246 4.52366 19.191 4.75669 19.191C4.95762 19.191 5.15692 19.1415 5.33579 19.0437L10.6276 16.1553L15.9175 19.0437C16.3046 19.2564 16.7926 19.237 17.1593 18.9943C17.5269 18.7509 17.6986 18.3327 17.5986 17.9291L16.2312 12.4281L20.8683 8.71463C21.2094 8.44212 21.3396 8.01173 21.1997 7.61792Z" fill="#FFC107"/>
</g>
<g clip-path="url(#clip2)">
<path d="M133.502 19.0193C133.269 19.0193 133.038 18.953 132.841 18.8226C132.473 18.5793 132.301 18.1611 132.402 17.7575L133.769 12.2564L129.132 8.54226C128.791 8.27049 128.66 7.8401 128.8 7.44629C128.94 7.05322 129.321 6.77493 129.772 6.73687L135.908 6.22813L138.334 1.04343C138.512 0.662506 138.92 0.416504 139.372 0.416504C139.825 0.416504 140.232 0.662506 140.411 1.04254L142.837 6.22813L148.972 6.73687C149.424 6.77404 149.805 7.05322 149.944 7.44629C150.084 7.83936 149.955 8.27049 149.614 8.54226L144.977 12.2557L146.344 17.7566C146.444 18.1611 146.273 18.5793 145.905 18.8219C145.538 19.0645 145.049 19.0832 144.663 18.8712L139.372 15.9836L134.082 18.8729C133.903 18.9699 133.703 19.0193 133.502 19.0193ZM139.372 14.7397C139.574 14.7397 139.773 14.789 139.952 14.886L144.945 17.6135L143.654 12.4214C143.562 12.0519 143.7 11.6661 144.012 11.4161L148.391 7.90897L142.598 7.42851C142.181 7.39371 141.822 7.15423 141.659 6.80322L139.372 1.91043L137.083 6.80396C136.922 7.1526 136.563 7.39208 136.147 7.42689L130.353 7.90734L134.732 11.4145C135.045 11.6652 135.182 12.0503 135.089 12.4207L133.8 17.6126L138.793 14.886C138.972 14.789 139.171 14.7397 139.372 14.7397ZM135.861 6.32839C135.861 6.32839 135.861 6.32928 135.86 6.33002L135.861 6.32839ZM142.882 6.32602L142.883 6.32765C142.883 6.32677 142.883 6.32677 142.882 6.32602Z" fill="#B0AA9F"/>
</g>
<g clip-path="url(#clip3)">
<path d="M102.531 19.0193C102.298 19.0193 102.066 18.953 101.869 18.8226C101.502 18.5793 101.33 18.1611 101.43 17.7575L102.797 12.2564L98.1599 8.54226C97.819 8.27049 97.6888 7.8401 97.8287 7.44629C97.9687 7.05322 98.3495 6.77493 98.8003 6.73687L104.936 6.22813L107.362 1.04343C107.541 0.662506 107.948 0.416504 108.401 0.416504C108.853 0.416504 109.261 0.662506 109.44 1.04254L111.865 6.22813L118 6.73687C118.452 6.77404 118.833 7.05322 118.973 7.44629C119.113 7.83936 118.983 8.27049 118.642 8.54226L114.005 12.2557L115.372 17.7566C115.473 18.1611 115.301 18.5793 114.933 18.8219C114.567 19.0645 114.078 19.0832 113.692 18.8712L108.401 15.9836L103.11 18.8729C102.931 18.9699 102.732 19.0193 102.531 19.0193ZM108.401 14.7397C108.602 14.7397 108.801 14.789 108.98 14.886L113.973 17.6135L112.683 12.4214C112.591 12.0519 112.728 11.6661 113.041 11.4161L117.419 7.90897L111.626 7.42851C111.209 7.39371 110.85 7.15423 110.687 6.80322L108.401 1.91043L106.111 6.80396C105.95 7.1526 105.591 7.39208 105.175 7.42689L99.3813 7.90734L103.76 11.4145C104.073 11.6652 104.211 12.0503 104.118 12.4207L102.828 17.6126L107.821 14.886C108 14.789 108.2 14.7397 108.401 14.7397ZM104.889 6.32839C104.889 6.32839 104.889 6.32928 104.888 6.33002L104.889 6.32839ZM111.911 6.32602L111.912 6.32765C111.912 6.32677 111.912 6.32677 111.911 6.32602Z" fill="#B0AA9F"/>
</g>
<g clip-path="url(#clip4)">
<path d="M69.1298 19.6075C68.8969 19.6075 68.6657 19.5411 68.4683 19.4108C68.1007 19.1674 67.929 18.7492 68.029 18.3456L69.3964 12.8446L64.7591 9.1304C64.4182 8.85862 64.288 8.42823 64.4279 8.03442C64.5679 7.64135 64.9486 7.36306 65.3995 7.325L71.5352 6.81626L73.9611 1.63157C74.14 1.25064 74.5473 1.00464 74.9999 1.00464C75.4525 1.00464 75.8599 1.25064 76.0388 1.63068L78.4646 6.81626L84.5994 7.325C85.0512 7.36218 85.432 7.64135 85.572 8.03442C85.7119 8.42749 85.5825 8.85862 85.2416 9.1304L80.6043 12.8438L81.9717 18.3447C82.0719 18.7492 81.9 19.1674 81.5325 19.41C81.1659 19.6526 80.6769 19.6713 80.2908 19.4594L74.9999 16.5718L69.7091 19.461C69.5302 19.558 69.3309 19.6075 69.1298 19.6075ZM74.9999 15.3278C75.201 15.3278 75.4002 15.3772 75.5792 15.4742L80.5725 18.2017L79.282 13.0096C79.1899 12.64 79.3272 12.2542 79.6399 12.0042L84.0186 8.4971L78.2254 8.01665C77.8084 7.98185 77.4496 7.74236 77.2867 7.39135L74.9999 2.49857L72.7105 7.39209C72.5493 7.74073 72.1905 7.98022 71.7744 8.01502L65.9805 8.49547L70.359 12.0026C70.6727 12.2533 70.8099 12.6384 70.7169 13.0088L69.4274 18.2008L74.4207 15.4742C74.5995 15.3772 74.7988 15.3278 74.9999 15.3278ZM71.4884 6.91653C71.4884 6.91653 71.4884 6.91742 71.4874 6.91816L71.4884 6.91653ZM78.5097 6.91416L78.5107 6.91579C78.5107 6.9149 78.5107 6.9149 78.5097 6.91416Z" fill="#B0AA9F"/>
</g>
<defs>
<clipPath id="clip0">
<rect width="21.2551" height="19.4119" fill="white" transform="translate(29.7571)"/>
</clipPath>
<clipPath id="clip1">
<rect width="21.2551" height="19.4119" fill="white" transform="translate(0 0.588135)"/>
</clipPath>
<clipPath id="clip2">
<rect width="21.2551" height="19.4119" fill="white" transform="translate(128.745)"/>
</clipPath>
<clipPath id="clip3">
<rect width="21.2551" height="19.4119" fill="white" transform="translate(97.7733)"/>
</clipPath>
<clipPath id="clip4">
<rect width="21.2551" height="19.4119" fill="white" transform="translate(64.3724 0.588135)"/>
</clipPath>
</defs>
</svg>
