<svg width="150" height="20" viewBox="0 0 150 20" fill="none" xmlns="http://www.w3.org/2000/svg">
<g clip-path="url(#clip0)">
<path d="M87.6464 7.67185C87.5079 7.26687 87.1277 6.97923 86.6778 6.94093L80.5678 6.41678L78.1517 1.07408C77.9735 0.682532 77.5678 0.429077 77.117 0.429077C76.6663 0.429077 76.2605 0.682532 76.0824 1.075L73.6663 6.41678L67.5553 6.94093C67.1063 6.98015 66.727 7.26687 66.5877 7.67185C66.4483 8.07683 66.577 8.52102 66.9167 8.80103L71.5351 12.6277L70.1733 18.2954C70.0736 18.7122 70.2448 19.1429 70.6108 19.3929C70.8075 19.5272 71.0377 19.5955 71.2698 19.5955C71.4699 19.5955 71.6684 19.5446 71.8465 19.4438L77.117 16.4678L82.3856 19.4438C82.7711 19.663 83.2571 19.643 83.6223 19.3929C83.9885 19.1422 84.1595 18.7113 84.0599 18.2954L82.698 12.6277L87.3165 8.80179C87.6561 8.52102 87.7858 8.07759 87.6464 7.67185Z" fill="#FFC107"/>
</g>
<g clip-path="url(#clip1)">
<path d="M53.1706 7.67185C53.0321 7.26687 52.6519 6.97923 52.202 6.94093L46.092 6.41678L43.6759 1.07408C43.4978 0.682532 43.092 0.429077 42.6412 0.429077C42.1905 0.429077 41.7847 0.682532 41.6066 1.075L39.1905 6.41678L33.0795 6.94093C32.6305 6.98015 32.2512 7.26687 32.1119 7.67185C31.9725 8.07683 32.1012 8.52102 32.4409 8.80103L37.0593 12.6277L35.6975 18.2954C35.5978 18.7122 35.769 19.1429 36.135 19.3929C36.3317 19.5272 36.5619 19.5955 36.794 19.5955C36.9941 19.5955 37.1926 19.5446 37.3707 19.4438L42.6412 16.4678L47.9098 19.4438C48.2953 19.663 48.7813 19.643 49.1465 19.3929C49.5127 19.1422 49.6837 18.7113 49.5841 18.2954L48.2222 12.6277L52.8407 8.80179C53.1803 8.52102 53.31 8.07759 53.1706 7.67185Z" fill="#FFC107"/>
</g>
<g clip-path="url(#clip2)">
<path d="M21.1142 7.67185C20.9756 7.26687 20.5954 6.97923 20.1456 6.94093L14.0355 6.41678L11.6195 1.07408C11.4413 0.682532 11.0356 0.429077 10.5848 0.429077C10.134 0.429077 9.7283 0.682532 9.55015 1.075L7.13407 6.41678L1.02304 6.94093C0.574032 6.98015 0.194798 7.26687 0.0554117 7.67185C-0.0839745 8.07683 0.0447518 8.52102 0.384415 8.80103L5.00289 12.6277L3.64101 18.2954C3.54136 18.7122 3.71256 19.1429 4.07855 19.3929C4.27528 19.5272 4.50543 19.5955 4.73753 19.5955C4.93764 19.5955 5.13614 19.5446 5.31429 19.4438L10.5848 16.4678L15.8534 19.4438C16.2389 19.663 16.7249 19.643 17.0901 19.3929C17.4562 19.1422 17.6273 18.7113 17.5276 18.2954L16.1657 12.6277L20.7842 8.80179C21.1239 8.52102 21.2536 8.07759 21.1142 7.67185Z" fill="#FFC107"/>
</g>
<g clip-path="url(#clip3)">
<path d="M103.327 19.5955C103.095 19.5955 102.865 19.5272 102.668 19.3929C102.302 19.1422 102.131 18.7113 102.231 18.2954L103.592 12.6277L98.9738 8.80103C98.6343 8.52102 98.5046 8.07759 98.644 7.67185C98.7834 7.26687 99.1626 6.98015 99.6116 6.94093L105.723 6.41678L108.139 1.075C108.317 0.682532 108.723 0.429077 109.173 0.429077C109.624 0.429077 110.03 0.682532 110.208 1.07408L112.624 6.41678L118.734 6.94093C119.184 6.97923 119.563 7.26687 119.703 7.67185C119.842 8.07683 119.713 8.52102 119.374 8.80103L114.755 12.627L116.117 18.2945C116.217 18.7113 116.046 19.1422 115.68 19.3921C115.314 19.6421 114.827 19.6613 114.443 19.4429L109.173 16.4678L103.904 19.4446C103.726 19.5446 103.527 19.5955 103.327 19.5955ZM109.173 15.1862C109.374 15.1862 109.572 15.237 109.75 15.337L114.723 18.1471L113.438 12.7977C113.346 12.417 113.483 12.0195 113.795 11.7619L118.156 8.14854L112.386 7.65354C111.97 7.61768 111.613 7.37094 111.451 7.00929L109.173 1.96827L106.893 7.01006C106.733 7.36926 106.375 7.616 105.961 7.65186L100.19 8.14687L104.551 11.7602C104.864 12.0186 105 12.4153 104.908 12.7969L103.623 18.1462L108.596 15.337C108.775 15.237 108.973 15.1862 109.173 15.1862ZM105.676 6.52008C105.676 6.52008 105.676 6.521 105.675 6.52176L105.676 6.52008ZM112.669 6.51764L112.67 6.51932C112.67 6.51841 112.67 6.51841 112.669 6.51764Z" fill="#B0AA9F"/>
</g>
<g clip-path="url(#clip4)">
<path d="M133.569 19.5955C133.337 19.5955 133.107 19.5272 132.91 19.3929C132.544 19.1422 132.373 18.7113 132.472 18.2954L133.834 12.6277L129.216 8.80103C128.876 8.52102 128.747 8.07759 128.886 7.67185C129.025 7.26687 129.405 6.98015 129.854 6.94093L135.965 6.41678L138.381 1.075C138.559 0.682532 138.965 0.429077 139.415 0.429077C139.866 0.429077 140.272 0.682532 140.45 1.07408L142.866 6.41678L148.976 6.94093C149.426 6.97923 149.805 7.26687 149.945 7.67185C150.084 8.07683 149.955 8.52102 149.616 8.80103L144.997 12.627L146.359 18.2945C146.459 18.7113 146.288 19.1422 145.922 19.3921C145.556 19.6421 145.069 19.6613 144.685 19.4429L139.415 16.4678L134.146 19.4446C133.968 19.5446 133.769 19.5955 133.569 19.5955ZM139.415 15.1862C139.616 15.1862 139.814 15.237 139.992 15.337L144.965 18.1471L143.68 12.7977C143.588 12.417 143.725 12.0195 144.037 11.7619L148.398 8.14854L142.628 7.65354C142.212 7.61768 141.855 7.37094 141.693 7.00929L139.415 1.96827L137.135 7.01006C136.975 7.36926 136.617 7.616 136.203 7.65186L130.432 8.14687L134.793 11.7602C135.105 12.0186 135.242 12.4153 135.15 12.7969L133.865 18.1462L138.838 15.337C139.017 15.237 139.215 15.1862 139.415 15.1862ZM135.918 6.52008C135.918 6.52008 135.918 6.521 135.917 6.52176L135.918 6.52008ZM142.911 6.51764L142.912 6.51932C142.912 6.51841 142.912 6.51841 142.911 6.51764Z" fill="#B0AA9F"/>
</g>
<defs>
<clipPath id="clip0">
<rect width="21.1694" height="20" fill="white" transform="translate(66.5323)"/>
</clipPath>
<clipPath id="clip1">
<rect width="21.1694" height="20" fill="white" transform="translate(32.0565)"/>
</clipPath>
<clipPath id="clip2">
<rect width="21.1694" height="20" fill="white"/>
</clipPath>
<clipPath id="clip3">
<rect width="21.1694" height="20" fill="white" transform="translate(98.5887)"/>
</clipPath>
<clipPath id="clip4">
<rect width="21.1694" height="20" fill="white" transform="translate(128.831)"/>
</clipPath>
</defs>
</svg>
