<svg width="150" height="20" viewBox="0 0 150 20" fill="none" xmlns="http://www.w3.org/2000/svg">
<g clip-path="url(#clip0)">
<path d="M21.1997 7.67185C21.0605 7.26687 20.6788 6.97923 20.2272 6.94093L14.0924 6.41678L11.6665 1.07408C11.4876 0.682532 11.0803 0.429077 10.6277 0.429077C10.175 0.429077 9.76768 0.682532 9.58881 1.075L7.16295 6.41678L1.02718 6.94093C0.576355 6.98015 0.195586 7.26687 0.055636 7.67185C-0.0843145 8.07683 0.0449329 8.52102 0.385971 8.80103L5.02315 12.6277L3.65575 18.2954C3.55569 18.7122 3.72759 19.1429 4.09506 19.3929C4.29258 19.5272 4.52367 19.5955 4.75671 19.5955C4.95763 19.5955 5.15694 19.5446 5.33581 19.4438L10.6277 16.4678L15.9176 19.4438C16.3046 19.663 16.7926 19.643 17.1593 19.3929C17.5269 19.1422 17.6986 18.7113 17.5986 18.2954L16.2312 12.6277L20.8684 8.80179C21.2094 8.52102 21.3396 8.07759 21.1997 7.67185Z" fill="#FFC107"/>
</g>
<g clip-path="url(#clip1)">
<path d="M51.564 7.67185C51.4249 7.26687 51.0432 6.97923 50.5915 6.94093L44.4567 6.41678L42.0309 1.07408C41.852 0.682532 41.4446 0.429077 40.992 0.429077C40.5394 0.429077 40.132 0.682532 39.9532 1.075L37.5273 6.41678L31.3915 6.94093C30.9407 6.98015 30.56 7.26687 30.42 7.67185C30.2801 8.07683 30.4093 8.52102 30.7503 8.80103L35.3875 12.6277L34.0201 18.2954C33.9201 18.7122 34.092 19.1429 34.4594 19.3929C34.6569 19.5272 34.888 19.5955 35.1211 19.5955C35.322 19.5955 35.5213 19.5446 35.7002 19.4438L40.992 16.4678L46.2819 19.4438C46.669 19.663 47.157 19.643 47.5236 19.3929C47.8913 19.1422 48.063 18.7113 47.9629 18.2954L46.5956 12.6277L51.2327 8.80179C51.5738 8.52102 51.704 8.07759 51.564 7.67185Z" fill="#FFC107"/>
</g>
<g clip-path="url(#clip2)">
<path d="M85.5721 7.67185C85.433 7.26687 85.0512 6.97923 84.5996 6.94093L78.4648 6.41678L76.0389 1.07408C75.8601 0.682532 75.4527 0.429077 75.0001 0.429077C74.5475 0.429077 74.1401 0.682532 73.9613 1.075L71.5354 6.41678L65.3996 6.94093C64.9488 6.98015 64.568 7.26687 64.4281 7.67185C64.2881 8.07683 64.4174 8.52102 64.7584 8.80103L69.3956 12.6277L68.0282 18.2954C67.9281 18.7122 68.1 19.1429 68.4675 19.3929C68.665 19.5272 68.8961 19.5955 69.1292 19.5955C69.3301 19.5955 69.5294 19.5446 69.7083 19.4438L75.0001 16.4678L80.29 19.4438C80.6771 19.663 81.1651 19.643 81.5317 19.3929C81.8994 19.1422 82.0711 18.7113 81.971 18.2954L80.6036 12.6277L85.2408 8.80179C85.5819 8.52102 85.7121 8.07759 85.5721 7.67185Z" fill="#FFC107"/>
</g>
<g clip-path="url(#clip3)">
<path d="M119.58 7.67185C119.441 7.26687 119.059 6.97923 118.608 6.94093L112.473 6.41678L110.047 1.07408C109.868 0.682532 109.461 0.429077 109.008 0.429077C108.556 0.429077 108.148 0.682532 107.969 1.075L105.543 6.41678L99.4077 6.94093C98.9569 6.98015 98.5761 7.26687 98.4362 7.67185C98.2962 8.07683 98.4255 8.52102 98.7665 8.80103L103.404 12.6277L102.036 18.2954C101.936 18.7122 102.108 19.1429 102.476 19.3929C102.673 19.5272 102.904 19.5955 103.137 19.5955C103.338 19.5955 103.537 19.5446 103.716 19.4438L109.008 16.4678L114.298 19.4438C114.685 19.663 115.173 19.643 115.54 19.3929C115.907 19.1422 116.079 18.7113 115.979 18.2954L114.612 12.6277L119.249 8.80179C119.59 8.52102 119.72 8.07759 119.58 7.67185Z" fill="#FFC107"/>
</g>
<path d="M133.502 19.7725C133.269 19.7725 133.038 19.7042 132.841 19.5699C132.473 19.3192 132.301 18.8883 132.401 18.4724L133.769 12.8047L129.132 8.97803C128.791 8.69802 128.66 8.25459 128.8 7.84885C128.94 7.44387 129.321 7.15715 129.772 7.11793L135.908 6.59378L138.334 1.252C138.512 0.859534 138.92 0.606079 139.372 0.606079C139.825 0.606079 140.232 0.859534 140.411 1.25108L142.837 6.59378L148.972 7.11793C149.424 7.15623 149.804 7.44387 149.944 7.84885C150.084 8.25383 149.955 8.69802 149.614 8.97803L144.977 12.804L146.344 18.4715C146.444 18.8883 146.272 19.3192 145.905 19.5691C145.538 19.8191 145.049 19.8383 144.663 19.6199L139.372 16.6449L134.082 19.6216C133.903 19.7216 133.703 19.7725 133.502 19.7725ZM139.372 15.3632C139.573 15.3632 139.773 15.414 139.952 15.514L144.945 18.3241L143.654 12.9747C143.562 12.594 143.7 12.1965 144.012 11.9389L148.391 8.32555L142.598 7.83054C142.181 7.79468 141.822 7.54794 141.659 7.1863L139.372 2.14527L137.083 7.18706C136.922 7.54626 136.563 7.793 136.147 7.82886L130.353 8.32387L134.731 11.9372C135.045 12.1956 135.182 12.5923 135.089 12.974L133.8 18.3232L138.793 15.514C138.972 15.414 139.171 15.3632 139.372 15.3632ZM135.861 6.69709C135.861 6.69709 135.861 6.698 135.86 6.69876L135.861 6.69709ZM142.882 6.69464L142.883 6.69632C142.883 6.69541 142.883 6.69541 142.882 6.69464Z" fill="#B0AA9F"/>
<defs>
<clipPath id="clip0">
<rect width="21.2551" height="20" fill="white"/>
</clipPath>
<clipPath id="clip1">
<rect width="21.2551" height="20" fill="white" transform="translate(30.3644)"/>
</clipPath>
<clipPath id="clip2">
<rect width="21.2551" height="20" fill="white" transform="translate(64.3725)"/>
</clipPath>
<clipPath id="clip3">
<rect width="21.2551" height="20" fill="white" transform="translate(98.3806)"/>
</clipPath>
</defs>
</svg>
