<svg width="332" height="438" viewBox="0 0 332 438" fill="none" xmlns="http://www.w3.org/2000/svg">
<path d="M129.379 369.02L116.18 300.799L157.982 298.911V369.02H186.584L215.187 293.678" stroke="#B3B3B3" stroke-miterlimit="10"/>
<path d="M177.808 361.886H138.156C117.512 361.886 100.776 377.373 100.776 396.478V402.636C100.776 421.74 117.512 437.228 138.156 437.228H177.808C198.451 437.228 215.187 421.74 215.187 402.636V396.478C215.187 377.373 198.451 361.886 177.808 361.886Z" fill="#6C63FF"/>
<path opacity="0.05" d="M175.589 361.886H142.592C131.806 361.916 121.471 365.894 113.844 372.953C106.217 380.011 101.918 389.575 101.886 399.557C101.886 400.418 101.886 401.255 101.995 402.091C102.721 392.575 107.31 383.665 114.84 377.15C122.37 370.636 132.284 366.998 142.592 366.967H175.589C185.898 366.998 195.812 370.636 203.342 377.15C210.872 383.665 215.46 392.575 216.186 402.091C216.186 401.255 216.296 400.406 216.296 399.557C216.263 389.575 211.964 380.011 204.337 372.953C196.71 365.894 186.375 361.916 175.589 361.886Z" fill="black"/>
<path d="M184.339 384.326L173.536 376.483L147.411 407.109L133.363 397.035L124.573 407.375L145.002 421.82L150.068 425.583L184.339 384.326Z" fill="url(#paint0_linear)"/>
<path d="M183.544 384.136L173.741 377.192L147.795 408.515L133.377 398.277L125.86 407.35L145.18 421.034L150.136 424.468L183.544 384.136Z" fill="#69F0AE"/>
<path d="M331.541 157.996C331.541 244.996 253.004 315.523 169.387 315.523C85.7701 315.523 0.0722046 244.996 0.0722046 157.996C0.0722046 70.997 85.7701 0.470032 169.401 0.470032C253.031 0.470032 331.541 70.997 331.541 157.996Z" fill="url(#paint1_linear)"/>
<path d="M323.777 157.996C323.777 240.928 248.923 308.148 169.209 308.148C89.4943 308.148 7.80804 240.928 7.80804 157.996C7.80804 75.0644 89.5217 7.89526 169.223 7.89526C248.924 7.89526 323.777 75.0517 323.777 157.996Z" fill="#6C63FF"/>
<path d="M180.313 313.419H144.454V325.013H180.313V313.419Z" fill="#6C63FF"/>
<g opacity="0.2">
<path opacity="0.2" d="M169.223 7.32507C167.32 7.32507 165.43 7.32506 163.527 7.45177C241.064 10.5562 312.399 76.5215 312.399 157.477C312.399 238.432 241.064 304.397 163.582 307.502C165.485 307.578 167.388 307.628 169.278 307.628C248.978 307.628 323.846 240.409 323.846 157.477C323.846 74.5449 248.924 7.32507 169.223 7.32507Z" fill="black"/>
</g>
<g opacity="0.2">
<path opacity="0.2" d="M16.9407 157.996C16.9407 76.2555 96.354 9.74523 174.918 7.89526C173.782 7.89526 172.646 7.89526 171.509 7.89526C91.8082 7.89526 10.1083 75.1151 10.1083 158.047C10.1083 240.979 91.7946 308.199 171.495 308.199C172.632 308.199 173.768 308.199 174.905 308.199C96.3129 306.222 16.9407 239.775 16.9407 157.996Z" fill="white"/>
</g>
<path d="M215.625 287.076H112.579V318.158H215.625V287.076Z" fill="#6C63FF"/>
<path opacity="0.2" d="M112.579 18.7797C112.579 18.7797 -9.81349 148.252 112.579 297.213L152.998 297.086C152.998 297.086 41.4219 174.025 147.877 9.4538L127.983 13.6479L112.579 18.7797Z" fill="white"/>
<path opacity="0.2" d="M219.034 16.765C219.034 16.765 341.426 148.214 219.034 297.175L178.615 297.048C178.615 297.048 290.191 172.872 183.736 8.33875L203.658 12.026L219.034 16.765Z" fill="white"/>
<defs>
<linearGradient id="paint0_linear" x1="154.346" y1="425.642" x2="154.449" y2="376.491" gradientUnits="userSpaceOnUse">
<stop stop-opacity="0.12"/>
<stop offset="0.55" stop-opacity="0.09"/>
<stop offset="1" stop-opacity="0.02"/>
</linearGradient>
<linearGradient id="paint1_linear" x1="301845" y1="142650" x2="301845" y2="64315.3" gradientUnits="userSpaceOnUse">
<stop stop-color="#808080" stop-opacity="0.25"/>
<stop offset="0.54" stop-color="#808080" stop-opacity="0.12"/>
<stop offset="1" stop-color="#808080" stop-opacity="0.1"/>
</linearGradient>
</defs>
</svg>
