<svg width="118" height="96" viewBox="0 0 118 96" fill="none" xmlns="http://www.w3.org/2000/svg">
<path d="M84.7049 17.3213C81.2677 17.5931 78.2745 19.057 76.5039 21.0681C76.2289 21.3806 76.2423 21.8236 76.5348 22.0911C78.418 23.8133 81.4848 24.798 84.922 24.5262C88.664 24.2304 91.8799 22.5215 93.5647 20.2317C91.7501 18.2186 88.4471 17.0254 84.7049 17.3213Z" fill="#95D6A4"/>
<path d="M93.6984 5.20702C95.8068 2.95888 98.6798 1.66634 101.355 1.51834C101.798 1.49378 102.192 1.76294 102.261 2.13641C102.679 4.39473 101.832 7.06866 99.724 9.31659C97.4163 11.7773 94.1927 13.0929 91.3143 13.0166C90.5942 10.6387 91.3907 7.66774 93.6984 5.20702Z" fill="#CCF49F"/>
<path d="M92.3367 33.2253L91.896 39.2432L102.66 35.8026C103.539 35.5213 103.471 34.4305 102.568 34.3328L92.3367 33.2253Z" fill="#FFC269"/>
<path d="M76.2051 37.0666L26.2465 27.9848C25.1259 27.7812 24.1147 28.7716 24.5162 29.691C25.6344 32.251 27.9148 36.5572 31.655 39.7431L72.977 44.9183L76.2051 37.0666Z" fill="#DBEAFF"/>
<path d="M86.0015 30.1461L85.9975 30.147C81.5718 31.0994 77.6503 33.5126 75.0955 36.8561L72.7817 39.8842C71.6697 41.3393 69.7275 42.1623 67.7953 41.9971L5.28057 36.6556C3.95256 36.542 3.01679 37.8655 3.76952 38.7861C5.8939 41.3843 9.93749 45.5149 15.9143 48.2563C27.5007 59.0852 41.2991 55.4063 41.2991 55.4063L54.1199 60.4785L28.4681 77.273C27.3046 78.0384 26.778 79.315 27.1316 80.4805C27.5832 81.9694 28.464 84.0372 30.1235 85.8591L52.3584 75.217C63.629 76.0703 83.1827 73.5359 86.4775 46.6082C86.7321 44.5276 88.0284 42.5861 90.054 41.3503L90.1051 41.3191C92.7516 39.7047 94.1097 36.9266 93.5422 34.2891L93.5231 34.2006C92.8785 31.2062 89.5111 29.3909 86.0015 30.1461Z" fill="#EDF4FF"/>
<path d="M46.1149 74.1936C45.0177 74.0138 43.8532 74.3294 43.0145 75.0338L30.1233 85.8591C31.8586 87.7648 34.4485 89.399 38.307 89.8088L48.8114 79.8747L48.1111 74.5208L46.1149 74.1936Z" fill="#DBEAFF"/>
<path d="M85.8006 38.6422C84.8838 38.8395 84.0054 38.3654 83.8372 37.5839L83.6215 36.5815C83.4533 35.8 84.0588 35.0066 84.9758 34.8093C85.8928 34.612 86.771 35.0861 86.9392 35.8676L87.1549 36.87C87.3231 37.6515 86.7176 38.4449 85.8006 38.6422Z" fill="#5D5360"/>
<path d="M107.623 43.2632C106.937 43.4107 106.217 43.1832 105.852 42.6515C105.241 41.7585 90.8025 20.6042 85.4392 5.15593C85.1762 4.39906 85.6873 3.56031 86.5801 3.2828C87.4787 3.0085 88.4111 3.395 88.6737 4.15034C93.9271 19.2765 108.636 40.8274 108.784 41.043C109.244 41.7162 108.963 42.6213 108.153 43.0652C107.983 43.1583 107.804 43.2242 107.623 43.2632Z" fill="#B3E59F"/>
<path d="M38.307 89.8089C40.4363 90.0354 42.9502 89.8889 45.9219 89.2096C47.1604 88.9266 48.1688 88.0734 48.5204 87.006L52.358 75.2168L48.1111 74.5209L38.307 89.8089Z" fill="#C3DDFF"/>
<path d="M37.8654 58.2974L52.273 52.2121L58.0787 53.7639C59.777 54.2178 60.2693 56.0866 58.9865 57.2668C47.5448 67.7921 37.8654 58.2974 37.8654 58.2974Z" fill="#C3DDFF"/>
<path d="M37.169 50.0567C28.4557 52.1099 21.3786 50.7628 15.9144 48.2566C19.6969 54.4097 31.0905 65.9212 52.2729 52.2122L49.3194 51.0086C45.6038 49.4945 41.2995 49.0834 37.169 50.0567Z" fill="#DBEAFF"/>
</svg>
