<svg width="380" height="72" viewBox="0 0 380 72" fill="none" xmlns="http://www.w3.org/2000/svg">
<path d="M304.654 0.563477H56.9113C49.3797 0.563477 43.2742 6.2138 43.2742 13.1838V15.4266C43.2742 22.3966 49.3797 28.0469 56.9113 28.0469H304.654C312.185 28.0469 318.291 22.3966 318.291 15.4266V13.1838C318.291 6.2138 312.185 0.563477 304.654 0.563477Z" fill="#CAC7FA"/>
<path d="M366.254 23.9796H118.511C110.98 23.9796 104.874 29.6299 104.874 36.6V38.8427C104.874 45.8128 110.98 51.4631 118.511 51.4631H366.254C373.785 51.4631 379.891 45.8128 379.891 38.8427V36.6C379.891 29.6299 373.785 23.9796 366.254 23.9796Z" fill="#CAC7FA"/>
<path d="M261.743 44.3419H14.0007C6.46913 44.3419 0.363525 49.9922 0.363525 56.9623V59.205C0.363525 66.1751 6.46913 71.8254 14.0007 71.8254H261.743C269.275 71.8254 275.38 66.1751 275.38 59.205V56.9623C275.38 49.9922 269.275 44.3419 261.743 44.3419Z" fill="#CAC7FA"/>
</svg>
