<svg width="1209" height="902" viewBox="0 0 1209 902" fill="none" xmlns="http://www.w3.org/2000/svg">
<g clip-path="url(#clip0)">
<path d="M1132.65 31.5635H884.911C877.38 31.5635 871.274 37.2138 871.274 44.1838V46.4266C871.274 53.3966 877.38 59.0469 884.911 59.0469H1132.65C1140.19 59.0469 1146.29 53.3966 1146.29 46.4266V44.1838C1146.29 37.2138 1140.19 31.5635 1132.65 31.5635Z" fill="#F2F2F2"/>
<path d="M1194.25 54.9796H946.511C938.98 54.9796 932.874 60.6299 932.874 67.6V69.8427C932.874 76.8128 938.98 82.4631 946.511 82.4631H1194.25C1201.79 82.4631 1207.89 76.8128 1207.89 69.8427V67.6C1207.89 60.6299 1201.79 54.9796 1194.25 54.9796Z" fill="#F2F2F2"/>
<path d="M1089.74 75.3419H842.001C834.469 75.3419 828.364 80.9922 828.364 87.9623V90.205C828.364 97.1751 834.469 102.825 842.001 102.825H1089.74C1097.27 102.825 1103.38 97.1751 1103.38 90.205V87.9623C1103.38 80.9922 1097.27 75.3419 1089.74 75.3419Z" fill="#F2F2F2"/>
<g opacity="0.5">
<path opacity="0.5" d="M1167.24 869.423C1160.64 869.423 1008.82 930.51 832.813 769.651C737.23 682.31 643.604 673.009 577.992 682.753C537.669 688.734 500.852 706.955 471.688 733.349C448.234 754.661 391.467 783.703 258.463 775.771C53.8503 763.556 -0.0549011 898.959 -0.0549011 898.959H1208.95C1208.95 898.959 1173.8 869.423 1167.24 869.423Z" fill="url(#paint0_linear)"/>
</g>
<path d="M0 902C0 902 53.9052 766.597 258.518 778.812C391.522 786.782 448.302 757.702 471.688 736.402C500.797 709.958 537.601 691.788 577.883 685.807C643.495 676.063 737.134 685.363 832.704 772.705C1008.71 933.564 1160.53 872.477 1167.13 872.477C1173.73 872.477 1208.93 902 1208.93 902H0Z" fill="#F2F2F2"/>
<path opacity="0.02" d="M0 902C0 902 53.9052 766.597 258.518 778.812C391.522 786.782 448.302 757.702 471.688 736.402C500.797 709.958 537.601 691.788 577.883 685.807C643.495 676.063 737.134 685.363 832.704 772.705C1008.71 933.564 1160.53 872.477 1167.13 872.477C1173.73 872.477 1208.93 902 1208.93 902H0Z" fill="black"/>
<path d="M386.784 156.779H139.042C131.51 156.779 125.405 162.429 125.405 169.399V171.642C125.405 178.612 131.51 184.262 139.042 184.262H386.784C394.316 184.262 400.421 178.612 400.421 171.642V169.399C400.421 162.429 394.316 156.779 386.784 156.779Z" fill="#F2F2F2"/>
<path d="M448.398 180.195H200.656C193.124 180.195 187.018 185.845 187.018 192.815V195.058C187.018 202.028 193.124 207.678 200.656 207.678H448.398C455.93 207.678 462.035 202.028 462.035 195.058V192.815C462.035 185.845 455.93 180.195 448.398 180.195Z" fill="#F2F2F2"/>
<path d="M343.887 200.557H96.1449C88.6133 200.557 82.5078 206.207 82.5078 213.177V215.42C82.5078 222.39 88.6133 228.041 96.1449 228.041H343.887C351.419 228.041 357.524 222.39 357.524 215.42V213.177C357.524 206.207 351.419 200.557 343.887 200.557Z" fill="#F2F2F2"/>
<path d="M306.536 748.389H220.413V807.601H306.536V748.389Z" fill="#6C63FF"/>
<path d="M212.91 745.982L261.037 701.443C261.386 701.12 261.8 700.863 262.256 700.688C262.711 700.513 263.2 700.423 263.693 700.423C264.187 700.423 264.676 700.513 265.131 700.688C265.587 700.863 266.001 701.12 266.35 701.443L314.094 745.627C314.619 746.112 314.977 746.73 315.123 747.403C315.268 748.076 315.195 748.774 314.912 749.409C314.63 750.043 314.15 750.586 313.534 750.969C312.918 751.351 312.193 751.556 311.451 751.557L215.607 751.912C214.861 751.921 214.128 751.723 213.504 751.345C212.879 750.966 212.391 750.424 212.101 749.787C211.812 749.15 211.734 748.448 211.878 747.77C212.022 747.092 212.381 746.469 212.91 745.982Z" fill="#6C63FF"/>
<path opacity="0.05" d="M212.91 745.982L261.037 701.443C261.386 701.12 261.8 700.863 262.256 700.688C262.711 700.513 263.2 700.423 263.693 700.423C264.187 700.423 264.676 700.513 265.131 700.688C265.587 700.863 266.001 701.12 266.35 701.443L314.094 745.627C314.619 746.112 314.977 746.73 315.123 747.403C315.268 748.076 315.195 748.774 314.912 749.409C314.63 750.043 314.15 750.586 313.534 750.969C312.918 751.351 312.193 751.556 311.451 751.557L215.607 751.912C214.861 751.921 214.128 751.723 213.504 751.345C212.879 750.966 212.391 750.424 212.101 749.787C211.812 749.15 211.734 748.448 211.878 747.77C212.022 747.092 212.381 746.469 212.91 745.982Z" fill="black"/>
<path d="M262.365 780.89H264.091C266.669 780.89 269.141 781.838 270.964 783.525C272.788 785.212 273.812 787.501 273.812 789.887V807.626H252.644V789.887C252.644 787.501 253.668 785.212 255.491 783.525C257.314 781.838 259.787 780.89 262.365 780.89Z" fill="white"/>
<path d="M263.707 717.231C266.634 717.231 269.006 715.036 269.006 712.327C269.006 709.619 266.634 707.424 263.707 707.424C260.781 707.424 258.408 709.619 258.408 712.327C258.408 715.036 260.781 717.231 263.707 717.231Z" fill="white"/>
<path d="M247.359 755.954H227.15V770.196H247.359V755.954Z" fill="white"/>
<path d="M238.213 755.954H236.282V770.196H238.213V755.954Z" fill="#6C63FF"/>
<path d="M301.237 755.954H281.027V770.196H301.237V755.954Z" fill="white"/>
<path d="M292.104 755.954H290.174V770.196H292.104V755.954Z" fill="#6C63FF"/>
<g opacity="0.2">
<path opacity="0.2" d="M619.562 685.692C619.383 685.656 619.562 685.692 619.562 685.692V685.692Z" fill="url(#paint1_linear)"/>
</g>
<g opacity="0.2">
<path opacity="0.2" d="M621.547 722.489H621.711C621.745 722.478 621.774 722.457 621.796 722.43C621.818 722.403 621.831 722.371 621.834 722.337C621.844 722.287 621.844 722.236 621.834 722.185V722.059C621.697 721.754 621.382 721.349 621.204 720.994L621.122 720.804C621.114 720.72 621.114 720.635 621.122 720.551C621.122 720.551 621.122 720.475 621.122 720.437L624.079 711.453L624.148 711.238C624.148 711.238 627.913 712.733 628.885 715.723C629.445 717.174 629.474 718.754 628.968 720.221L628.899 720.373H628.968V722.021H633.075C633.363 721.894 632.979 721.564 632.596 721.235L632.5 721.146L632.254 720.906C632.184 720.832 632.124 720.752 632.076 720.665L632.007 720.513V720.424H631.884V720.285C632.397 718.083 632.28 715.796 631.546 713.65C630.811 711.503 629.483 709.571 627.694 708.044C628.685 705.311 628.685 702.352 627.694 699.618C628.078 699.365 635.54 694.372 635.485 687.91C635.507 687.564 635.507 687.217 635.485 686.871C635.485 686.871 636.128 686.377 635.485 685.477V685.401H635.416H634.965C634.669 685.428 634.384 685.515 634.129 685.655C634.129 685.655 633.705 686.922 634.129 687.251H634.02C634.02 687.251 629.597 696.121 626.64 697.388L626.435 697.274V696.121C626.438 696.07 626.438 696.02 626.435 695.969C626.437 695.923 626.437 695.876 626.435 695.83C626.767 695.67 627.067 695.46 627.324 695.209C627.423 695.113 627.514 695.011 627.598 694.905L627.708 694.753L627.817 694.575L627.9 694.41C627.958 694.291 628.009 694.168 628.05 694.043V693.891V693.701C628.05 693.701 628.05 693.6 628.05 693.549C628.05 693.485 628.05 693.422 628.05 693.346C628.05 692.983 627.981 692.623 627.845 692.282C627.845 692.189 627.804 692.096 627.722 692.003L627.653 691.864L627.557 691.712C627.631 691.627 627.719 691.555 627.817 691.496C628.007 691.398 628.217 691.337 628.434 691.319H628.968H629.077C629.155 691.29 629.229 691.251 629.296 691.205C629.4 691.124 629.522 691.063 629.652 691.027H628.844H628.721H628.612H628.488H628.379H628.269H628.16H628.05H627.941L627.722 690.939C627.835 690.981 627.955 691.007 628.078 691.015H628.543H628.625L628.707 690.951V690.85H628.557H628.461C628.275 690.873 628.086 690.873 627.9 690.85H627.502H627.324L627.16 690.787C627.385 690.862 627.634 690.852 627.851 690.758C628.068 690.664 628.235 690.494 628.317 690.286C628.399 690.078 628.388 689.848 628.286 689.647C628.185 689.446 628.001 689.291 627.776 689.215L627.927 689.127C628.085 689.001 628.183 688.824 628.201 688.632C628.22 688.553 628.22 688.471 628.201 688.392L628.105 688.468H628.023C627.764 688.637 627.449 688.718 627.133 688.696H627.023C626.744 688.629 626.473 688.536 626.215 688.417L625.983 688.341H625.914H625.723H625.613H625.462H624.737C623.714 688.373 622.739 688.752 621.998 689.405C621.827 689.561 621.672 689.731 621.533 689.912C621.433 688.984 621.619 688.049 622.067 687.213H621.985H621.738L621.615 687.429C621.68 687.123 621.805 686.831 621.985 686.567H621.903C622.084 686.379 622.185 686.135 622.185 685.883C622.185 685.63 622.084 685.387 621.903 685.199C621.259 684.299 620.068 684.996 620.068 684.996C619.972 685.289 619.908 685.591 619.876 685.896L619.684 685.82C619.465 686.504 617.028 694.36 621.054 699.378C621.048 699.483 621.048 699.589 621.054 699.694V708.159L618.315 719.765L617.781 721.957L621.629 722.54L621.547 722.489ZM622.231 695.057C622.448 695.223 622.688 695.364 622.943 695.475C622.935 695.555 622.935 695.635 622.943 695.716V696.818L622.71 696.919C622.532 696.375 622.382 695.741 622.217 695.057H622.231Z" fill="url(#paint2_linear)"/>
</g>
<path d="M635.526 687.86C635.526 687.86 636.238 687.302 635.526 686.314C634.814 685.325 633.5 686.098 633.5 686.098C633.5 686.098 633.02 687.53 633.5 687.86C633.979 688.189 635.526 687.86 635.526 687.86Z" fill="#CA7070"/>
<path d="M628.16 724.808H631.446C631.434 724.953 631.456 725.098 631.51 725.233C631.565 725.369 631.65 725.492 631.761 725.594C632.199 726.063 633.13 726.633 632.678 726.861H628.16V724.808Z" fill="#00695C"/>
<path opacity="0.2" d="M631.514 725.594C631.403 725.492 631.318 725.369 631.264 725.233C631.209 725.098 631.187 724.953 631.199 724.808H631.432C631.42 724.953 631.442 725.098 631.496 725.233C631.551 725.369 631.636 725.492 631.747 725.594C632.185 726.063 633.116 726.633 632.664 726.861H632.432C632.842 726.633 631.952 726.063 631.514 725.594Z" fill="white"/>
<path d="M616.439 724.187L619.561 724.694C619.477 725.032 619.525 725.387 619.698 725.695C620.04 726.341 620.793 727.178 620.342 727.355L615.892 726.684L616.439 724.187Z" fill="#00695C"/>
<path d="M617.946 686.516C617.946 686.516 614.427 696.793 620.328 702.482L622.039 701.215C622.039 701.215 618.548 690.001 620.506 687.365C617.056 686.364 617.946 686.516 617.946 686.516Z" fill="#00695C"/>
<path d="M620.383 687.416C620.383 687.416 621.095 686.858 620.383 685.87C619.671 684.882 618.356 685.655 618.356 685.655C618.356 685.655 617.877 687.087 618.356 687.416C618.835 687.745 620.383 687.416 620.383 687.416Z" fill="#CA7070"/>
<path opacity="0.2" d="M619.424 725.645C619.251 725.337 619.203 724.982 619.287 724.644L616.439 724.213L619.561 724.694C619.477 725.032 619.525 725.387 619.698 725.695C620.04 726.341 620.793 727.178 620.342 727.355H620.15C620.451 727.051 619.753 726.265 619.424 725.645Z" fill="white"/>
<path d="M623.176 700.67H623.45C624.297 700.67 624.983 700.035 624.983 699.251V697.502C624.983 696.719 624.297 696.083 623.45 696.083H623.176C622.329 696.083 621.642 696.719 621.642 697.502V699.251C621.642 700.035 622.329 700.67 623.176 700.67Z" fill="#CA7070"/>
<path opacity="0.2" d="M621.793 701.886C621.793 701.886 618.343 690.812 620.218 688.088H620.492H620.574C618.616 690.723 622.108 701.937 622.108 701.937L620.396 703.204L620.246 703.052L621.793 701.886Z" fill="white"/>
<path d="M623.244 697.692C625.286 697.692 626.941 696.161 626.941 694.271C626.941 692.382 625.286 690.85 623.244 690.85C621.203 690.85 619.547 692.382 619.547 694.271C619.547 696.161 621.203 697.692 623.244 697.692Z" fill="#CA7070"/>
<path opacity="0.2" d="M624.559 699.124V697.629C624.572 697.519 624.572 697.409 624.559 697.3C625.282 696.957 625.864 696.404 626.213 695.725C626.563 695.046 626.661 694.28 626.493 693.544C626.324 692.809 625.899 692.145 625.282 691.656C624.665 691.166 623.891 690.879 623.08 690.837H623.285C624.115 690.836 624.92 691.094 625.572 691.567C626.225 692.041 626.686 692.704 626.882 693.45C627.078 694.196 626.997 694.981 626.653 695.679C626.308 696.377 625.72 696.948 624.983 697.3C624.996 697.409 624.996 697.519 624.983 697.629V699.124C624.983 699.534 624.807 699.927 624.494 700.217C624.181 700.507 623.756 700.67 623.313 700.67H623.107C623.511 700.621 623.882 700.436 624.149 700.151C624.417 699.867 624.562 699.501 624.559 699.124Z" fill="white"/>
<path d="M619.493 711.326C619.493 711.326 626.626 712.074 626.886 711.326C628.004 708.282 628.004 704.981 626.886 701.937C626.886 701.488 626.791 701.043 626.605 700.628C626.419 700.213 626.147 699.836 625.804 699.518C625.46 699.2 625.053 698.948 624.604 698.776C624.156 698.604 623.675 698.516 623.19 698.516C622.209 698.516 621.269 698.876 620.575 699.518C619.882 700.159 619.493 701.03 619.493 701.937V711.326Z" fill="#00695C"/>
<path d="M619.493 711.326L616.275 725.011H619.493L622.834 714.874C622.834 714.874 626.941 716.534 628.077 719.841C628.766 721.51 628.766 723.355 628.077 725.024H631.542V724.872C632.114 722.432 631.982 719.896 631.16 717.519C630.338 715.141 628.855 713.006 626.859 711.326" fill="#263238"/>
<path opacity="0.2" d="M626.407 711.326C627.525 708.282 627.525 704.981 626.407 701.937C626.406 701.068 626.047 700.232 625.403 699.599C624.76 698.966 623.88 698.583 622.943 698.529H623.176C624.156 698.529 625.097 698.889 625.79 699.531C626.483 700.172 626.873 701.042 626.873 701.95C627.99 704.994 627.99 708.295 626.873 711.339C626.777 711.605 625.805 711.681 624.586 711.668C625.64 711.643 626.407 711.554 626.407 711.326Z" fill="white"/>
<path d="M626.941 701.886C626.941 701.886 636.525 695.703 635.526 687.872H633.39C633.39 687.872 628.256 698.136 624.983 699.137C621.711 700.138 626.941 701.886 626.941 701.886Z" fill="#00695C"/>
<g opacity="0.2">
<path opacity="0.2" d="M622.765 715.089L619.493 725.061H619.013L622.354 714.924L622.765 715.089Z" fill="white"/>
<path opacity="0.2" d="M626.407 711.377H626.886C628.882 713.056 630.365 715.192 631.187 717.569C632.009 719.947 632.141 722.483 631.569 724.922V725.074H631.09V724.922C631.662 722.483 631.53 719.947 630.708 717.569C629.886 715.192 628.403 713.056 626.407 711.377Z" fill="white"/>
</g>
<path opacity="0.2" d="M635.17 687.948H635.526C636.484 695.792 626.941 701.962 626.941 701.962L626.708 701.874C627.776 701.151 636.06 695.285 635.17 687.948Z" fill="white"/>
<path d="M626.188 692.738C625.984 693.18 625.841 693.644 625.764 694.119C625.669 694.605 625.469 695.068 625.178 695.482C624.886 695.895 624.508 696.25 624.066 696.527C623.556 696.783 622.989 696.926 622.409 696.945C621.972 696.995 621.528 696.96 621.106 696.842C620.683 696.724 620.293 696.526 619.958 696.26C619.57 695.871 619.309 695.388 619.205 694.867C619.021 694.092 619.05 693.287 619.289 692.526C619.528 691.764 619.97 691.07 620.574 690.508C621.188 689.959 621.957 689.581 622.793 689.417C623.628 689.253 624.496 689.311 625.298 689.583C625.587 689.714 625.89 689.816 626.202 689.887C626.448 689.932 626.703 689.918 626.943 689.847C627.182 689.776 627.398 689.65 627.571 689.482C627.61 689.596 627.619 689.718 627.597 689.836C627.576 689.955 627.524 690.067 627.447 690.163C627.369 690.26 627.268 690.338 627.151 690.391C627.035 690.444 626.907 690.471 626.777 690.47C627.05 690.592 627.347 690.662 627.65 690.678C627.954 690.693 628.257 690.652 628.543 690.559C628.382 690.874 628.097 691.122 627.746 691.251C627.396 691.38 627.005 691.382 626.654 691.255C627.325 691.533 628.054 691.671 628.789 691.661C628.639 691.661 628.338 691.927 628.146 691.978C627.909 691.997 627.671 691.997 627.434 691.978C627.169 691.979 626.91 692.052 626.689 692.187C626.468 692.322 626.294 692.513 626.188 692.738Z" fill="#263238"/>
<g opacity="0.2">
<path opacity="0.2" d="M626.681 690.483C626.957 690.603 627.255 690.672 627.559 690.685C627.163 690.711 626.766 690.641 626.407 690.483C626.523 690.483 626.638 690.461 626.744 690.418C626.85 690.376 626.946 690.313 627.024 690.234C627.103 690.156 627.163 690.063 627.201 689.961C627.239 689.86 627.253 689.753 627.244 689.646L627.436 689.494C627.474 689.606 627.484 689.724 627.464 689.84C627.445 689.955 627.397 690.065 627.324 690.161C627.25 690.257 627.155 690.335 627.043 690.391C626.932 690.447 626.808 690.478 626.681 690.483Z" fill="white"/>
<path opacity="0.2" d="M625.942 689.887C625.63 689.816 625.327 689.714 625.038 689.583C624.601 689.422 624.138 689.332 623.669 689.317C624.235 689.299 624.799 689.389 625.325 689.583C625.614 689.714 625.917 689.816 626.229 689.887H626.352C626.216 689.906 626.078 689.906 625.942 689.887Z" fill="white"/>
<path opacity="0.2" d="M627.776 691.978C627.968 691.978 628.269 691.661 628.42 691.661C627.684 691.671 626.956 691.533 626.284 691.255C626.437 691.311 626.599 691.341 626.763 691.344C627.371 691.558 628.017 691.661 628.666 691.648C628.516 691.648 628.215 691.914 628.023 691.965C627.86 691.989 627.693 691.989 627.53 691.965L627.776 691.978Z" fill="white"/>
<path opacity="0.2" d="M622.163 696.944C622.742 696.925 623.309 696.782 623.819 696.526C624.262 696.25 624.64 695.895 624.931 695.481C625.223 695.068 625.422 694.604 625.517 694.119C625.595 693.643 625.737 693.179 625.942 692.737C626.049 692.534 626.214 692.36 626.419 692.235C626.623 692.111 626.861 692.039 627.105 692.028H627.338C627.093 692.039 626.856 692.111 626.651 692.235C626.447 692.36 626.282 692.534 626.174 692.737C625.97 693.179 625.828 693.643 625.75 694.119C625.655 694.604 625.456 695.068 625.164 695.481C624.872 695.895 624.494 696.25 624.052 696.526C623.542 696.782 622.975 696.925 622.395 696.944H622.163Z" fill="white"/>
<path opacity="0.2" d="M626.968 691.357C627.221 691.341 627.465 691.266 627.678 691.14C627.891 691.014 628.066 690.84 628.187 690.635L628.461 690.559C628.33 690.817 628.117 691.032 627.85 691.175C627.583 691.318 627.276 691.381 626.968 691.357Z" fill="white"/>
</g>
<path opacity="0.2" d="M635.293 687.86C635.293 687.86 636.005 687.302 635.293 686.314C635.199 686.17 635.07 686.048 634.915 685.96C634.76 685.872 634.585 685.819 634.403 685.807C634.623 685.784 634.845 685.819 635.044 685.909C635.243 685.999 635.41 686.139 635.526 686.314C636.238 687.302 635.526 687.86 635.526 687.86C635.076 687.951 634.617 687.998 634.157 687.999C634.539 687.981 634.919 687.934 635.293 687.86Z" fill="white"/>
<path d="M651.614 675.556C651.614 675.556 648.095 685.832 653.996 691.521L655.708 690.254C655.708 690.254 652.217 679.041 654.174 676.405C650.724 675.404 651.614 675.556 651.614 675.556Z" fill="#FF5252"/>
<path d="M654.051 676.468C654.051 676.468 654.763 675.911 654.051 674.922C653.339 673.934 652.025 674.707 652.025 674.707C652.025 674.707 651.546 676.139 652.025 676.468C652.504 676.798 654.051 676.468 654.051 676.468Z" fill="#F6B9AD"/>
<path d="M656.844 689.722H657.118C657.965 689.722 658.652 689.087 658.652 688.303V686.554C658.652 685.771 657.965 685.135 657.118 685.135H656.844C655.997 685.135 655.311 685.771 655.311 686.554V688.303C655.311 689.087 655.997 689.722 656.844 689.722Z" fill="#F6B9AD"/>
<path opacity="0.2" d="M655.461 690.977C655.461 690.977 652.011 679.902 653.887 677.178H654.161H654.243C652.285 679.813 655.776 691.027 655.776 691.027L654.065 692.294L653.914 692.142L655.461 690.977Z" fill="white"/>
<path d="M656.913 686.732C658.954 686.732 660.61 685.2 660.61 683.311C660.61 681.421 658.954 679.89 656.913 679.89C654.871 679.89 653.216 681.421 653.216 683.311C653.216 685.2 654.871 686.732 656.913 686.732Z" fill="#F6B9AD"/>
<path opacity="0.2" d="M658.227 688.164V686.681C658.24 686.572 658.24 686.461 658.227 686.352C658.951 686.009 659.532 685.456 659.882 684.777C660.231 684.099 660.33 683.332 660.161 682.597C659.993 681.861 659.567 681.197 658.951 680.708C658.334 680.219 657.56 679.931 656.748 679.89H656.954C657.783 679.889 658.589 680.146 659.241 680.62C659.893 681.094 660.354 681.757 660.55 682.502C660.746 683.248 660.665 684.033 660.321 684.731C659.977 685.429 659.389 686 658.652 686.352C658.664 686.461 658.664 686.572 658.652 686.681V688.176C658.652 688.586 658.476 688.98 658.162 689.269C657.849 689.559 657.424 689.722 656.981 689.722H656.776C657.182 689.673 657.555 689.486 657.822 689.199C658.09 688.911 658.234 688.543 658.227 688.164Z" fill="white"/>
<path d="M653.161 700.366C653.161 700.366 660.295 701.113 660.555 700.366C661.404 697.958 659.186 695.297 660.267 694.03C660.602 693.583 660.804 693.062 660.854 692.52C660.905 691.978 660.802 691.433 660.555 690.939C660.555 690.489 660.459 690.044 660.273 689.629C660.088 689.214 659.815 688.837 659.472 688.519C659.129 688.202 658.721 687.95 658.273 687.778C657.824 687.606 657.344 687.517 656.858 687.517C655.878 687.517 654.937 687.878 654.244 688.519C653.551 689.161 653.161 690.031 653.161 690.939V700.366Z" fill="#FF5252"/>
<path opacity="0.2" d="M660.281 694.081C660.615 693.633 660.818 693.113 660.868 692.571C660.918 692.028 660.815 691.483 660.569 690.989C660.569 690.082 660.179 689.212 659.486 688.57C658.792 687.929 657.852 687.568 656.872 687.568H656.639C657.576 687.623 658.456 688.006 659.099 688.639C659.742 689.272 660.101 690.108 660.103 690.977C660.35 691.471 660.453 692.016 660.402 692.558C660.352 693.1 660.15 693.621 659.816 694.068C658.665 695.336 660.952 697.946 660.103 700.404C660.021 700.632 659.281 700.721 658.309 700.733C659.514 700.733 660.486 700.67 660.582 700.404C661.417 697.958 659.131 695.348 660.281 694.081Z" fill="white"/>
<path d="M659.035 700.151C661.785 704.177 662.856 708.992 662.047 713.696V713.848H659.829C660.274 712.145 660.274 710.368 659.829 708.665C659.408 706.682 658.208 704.912 656.461 703.698L654.311 713.835H652.244L654.311 700.151H659.035Z" fill="#F6B9AD"/>
<path d="M671.591 680.46C671.591 680.46 672.453 680.13 672.083 678.977C671.714 677.824 670.221 678.217 670.221 678.217C670.221 678.217 669.304 679.484 669.66 679.902C670.016 680.32 671.591 680.46 671.591 680.46Z" fill="#F6B9AD"/>
<path d="M658.926 691.534C658.926 691.534 670.002 688.214 671.577 680.46L669.523 679.877C669.523 679.877 661.308 688.303 657.912 688.366C654.517 688.43 658.926 691.534 658.926 691.534Z" fill="#FF5252"/>
<path opacity="0.2" d="M671.194 680.472L671.536 680.574C669.961 688.328 658.884 691.648 658.884 691.648L658.693 691.509C659.994 691.078 669.728 687.708 671.194 680.472Z" fill="white"/>
<g opacity="0.2">
<path opacity="0.2" d="M655.954 703.685L653.805 713.822H654.284L656.365 703.964C656.233 703.865 656.096 703.772 655.954 703.685Z" fill="white"/>
<path opacity="0.2" d="M659.035 700.151H658.556C661.306 704.177 662.377 708.992 661.568 713.696V713.848H662.006V713.696C662.827 708.997 661.771 704.182 659.035 700.151Z" fill="white"/>
</g>
<path opacity="0.2" d="M671.344 680.346C671.344 680.346 672.207 680.016 671.837 678.863C671.793 678.701 671.708 678.551 671.589 678.426C671.47 678.3 671.32 678.202 671.152 678.141C671.37 678.178 671.572 678.271 671.735 678.41C671.897 678.549 672.013 678.728 672.07 678.927C672.44 680.067 671.577 680.409 671.577 680.409C671.112 680.375 670.653 680.294 670.208 680.168C670.581 680.256 670.961 680.315 671.344 680.346Z" fill="white"/>
<path d="M653.161 699.998L648.67 708.767C651.295 708.887 653.908 709.179 656.488 709.641C661.459 710.515 663.827 708.374 663.827 708.374L660.637 699.998H653.161Z" fill="#263238"/>
<path d="M654.352 713.797C654.352 713.797 656.721 714.241 656.242 715.064H651.984L652.216 713.797H654.352Z" fill="#FF5252"/>
<path d="M661.924 713.797C661.924 713.797 664.293 714.241 663.814 715.064H659.555L659.788 713.797H661.924Z" fill="#FF5252"/>
<path d="M660.267 680.498C660.267 680.498 654.585 687.948 657.187 691.015L647.014 690.799C647.014 690.799 649.848 673.922 660.267 680.498Z" fill="#FCCC63"/>
<path opacity="0.2" d="M660.267 680.498C659.101 679.698 657.735 679.184 656.297 679.003C657.274 679.293 658.198 679.72 659.035 680.27C659.035 680.27 653.353 687.72 655.954 690.787L647 690.597V690.787L657.173 691.002C654.585 687.948 660.267 680.498 660.267 680.498Z" fill="white"/>
<path opacity="0.2" d="M660.637 699.998H659.925L663.129 708.323C661.804 709.331 660.134 709.87 658.419 709.844C660.39 710.023 662.357 709.477 663.896 708.323L660.637 699.998Z" fill="white"/>
<path opacity="0.2" d="M654.352 713.797H653.873C653.873 713.797 656.242 714.241 655.763 715.064H656.242C656.721 714.228 654.352 713.797 654.352 713.797Z" fill="white"/>
<path opacity="0.2" d="M661.924 713.797H661.445C661.445 713.797 663.814 714.241 663.334 715.064H663.814C664.293 714.228 661.924 713.797 661.924 713.797Z" fill="white"/>
<path d="M993.379 508.02L980.18 439.799L1021.98 437.911V508.02H1050.58L1079.19 432.678" stroke="#B3B3B3" stroke-miterlimit="10"/>
<path d="M1041.81 500.886H1002.16C981.512 500.886 964.776 516.373 964.776 535.478V541.636C964.776 560.74 981.512 576.228 1002.16 576.228H1041.81C1062.45 576.228 1079.19 560.74 1079.19 541.636V535.478C1079.19 516.373 1062.45 500.886 1041.81 500.886Z" fill="#6C63FF"/>
<path opacity="0.05" d="M1039.59 500.886H1006.59C995.806 500.916 985.471 504.894 977.844 511.953C970.217 519.011 965.918 528.575 965.886 538.557C965.886 539.418 965.886 540.255 965.995 541.091C966.721 531.575 971.31 522.665 978.84 516.15C986.37 509.636 996.284 505.998 1006.59 505.967H1039.59C1049.9 505.998 1059.81 509.636 1067.34 516.15C1074.87 522.665 1079.46 531.575 1080.19 541.091C1080.19 540.255 1080.3 539.406 1080.3 538.557C1080.26 528.575 1075.96 519.011 1068.34 511.953C1060.71 504.894 1050.38 500.916 1039.59 500.886Z" fill="black"/>
<path d="M1048.34 523.326L1037.54 515.483L1011.41 546.109L997.363 536.035L988.573 546.375L1009 560.82L1014.07 564.583L1048.34 523.326Z" fill="url(#paint3_linear)"/>
<path d="M1047.54 523.136L1037.74 516.192L1011.79 547.515L997.377 537.277L989.86 546.35L1009.18 560.034L1014.14 563.468L1047.54 523.136Z" fill="#69F0AE"/>
<path d="M1195.54 296.996C1195.54 383.996 1117 454.523 1033.39 454.523C949.77 454.523 864.072 383.996 864.072 296.996C864.072 209.997 949.77 139.47 1033.4 139.47C1117.03 139.47 1195.54 209.997 1195.54 296.996Z" fill="url(#paint4_linear)"/>
<path d="M1187.78 296.996C1187.78 379.928 1112.92 447.148 1033.21 447.148C953.494 447.148 871.808 379.928 871.808 296.996C871.808 214.064 953.522 146.895 1033.22 146.895C1112.92 146.895 1187.78 214.052 1187.78 296.996Z" fill="#6C63FF"/>
<path d="M1044.31 452.419H1008.45V464.013H1044.31V452.419Z" fill="#6C63FF"/>
<g opacity="0.2">
<path opacity="0.2" d="M1033.22 146.325C1031.32 146.325 1029.43 146.325 1027.53 146.452C1105.06 149.556 1176.4 215.522 1176.4 296.477C1176.4 377.432 1105.06 443.397 1027.58 446.502C1029.48 446.578 1031.39 446.628 1033.28 446.628C1112.98 446.628 1187.85 379.409 1187.85 296.477C1187.85 213.545 1112.92 146.325 1033.22 146.325Z" fill="black"/>
</g>
<g opacity="0.2">
<path opacity="0.2" d="M880.941 296.996C880.941 215.255 960.354 148.745 1038.92 146.895C1037.78 146.895 1036.65 146.895 1035.51 146.895C955.808 146.895 874.108 214.115 874.108 297.047C874.108 379.979 955.795 447.199 1035.5 447.199C1036.63 447.199 1037.77 447.199 1038.9 447.199C960.313 445.222 880.941 378.775 880.941 296.996Z" fill="white"/>
</g>
<path d="M1079.62 426.076H976.579V457.158H1079.62V426.076Z" fill="#6C63FF"/>
<path opacity="0.2" d="M976.579 157.78C976.579 157.78 854.187 287.252 976.579 436.213L1017 436.086C1017 436.086 905.422 313.025 1011.88 148.454L991.983 152.648L976.579 157.78Z" fill="white"/>
<path opacity="0.2" d="M1083.03 155.765C1083.03 155.765 1205.43 287.214 1083.03 436.175L1042.62 436.048C1042.62 436.048 1154.19 311.872 1047.74 147.339L1067.66 151.026L1083.03 155.765Z" fill="white"/>
</g>
<defs>
<linearGradient id="paint0_linear" x1="604.5" y1="898.946" x2="604.5" y2="679.661" gradientUnits="userSpaceOnUse">
<stop stop-color="#808080" stop-opacity="0.25"/>
<stop offset="0.54" stop-color="#808080" stop-opacity="0.12"/>
<stop offset="1" stop-color="#808080" stop-opacity="0.1"/>
</linearGradient>
<linearGradient id="paint1_linear" x1="3479.17" y1="696.067" x2="3479.17" y2="696.067" gradientUnits="userSpaceOnUse">
<stop stop-color="#808080" stop-opacity="0.25"/>
<stop offset="0.54" stop-color="#808080" stop-opacity="0.12"/>
<stop offset="1" stop-color="#808080" stop-opacity="0.1"/>
</linearGradient>
<linearGradient id="paint2_linear" x1="-47572.7" y1="25795.6" x2="-47572.7" y2="24666.4" gradientUnits="userSpaceOnUse">
<stop stop-color="#808080" stop-opacity="0.25"/>
<stop offset="0.54" stop-color="#808080" stop-opacity="0.12"/>
<stop offset="1" stop-color="#808080" stop-opacity="0.1"/>
</linearGradient>
<linearGradient id="paint3_linear" x1="1018.35" y1="564.642" x2="1018.45" y2="515.491" gradientUnits="userSpaceOnUse">
<stop stop-opacity="0.12"/>
<stop offset="0.55" stop-opacity="0.09"/>
<stop offset="1" stop-opacity="0.02"/>
</linearGradient>
<linearGradient id="paint4_linear" x1="302709" y1="142789" x2="302709" y2="64454.3" gradientUnits="userSpaceOnUse">
<stop stop-color="#808080" stop-opacity="0.25"/>
<stop offset="0.54" stop-color="#808080" stop-opacity="0.12"/>
<stop offset="1" stop-color="#808080" stop-opacity="0.1"/>
</linearGradient>
<clipPath id="clip0">
<rect width="1209" height="902" fill="white"/>
</clipPath>
</defs>
</svg>
