<svg width="1209" height="228" viewBox="0 0 1209 228" fill="none" xmlns="http://www.w3.org/2000/svg">
<g opacity="0.5">
<path opacity="0.5" d="M1167.24 195.423C1160.64 195.423 1008.82 256.51 832.813 95.6511C737.23 8.30967 643.604 -0.99081 577.992 8.75321C537.669 14.7339 500.852 32.9549 471.688 59.3486C448.234 80.6613 391.467 109.703 258.463 101.771C53.8503 89.5563 -0.0549011 224.959 -0.0549011 224.959H1208.95C1208.95 224.959 1173.8 195.423 1167.24 195.423Z" fill="url(#paint0_linear)"/>
</g>
<path d="M0 228C0 228 53.9052 92.5974 258.518 104.812C391.522 112.782 448.302 83.7023 471.688 62.4023C500.797 35.9578 537.601 17.7876 577.883 11.8069C643.495 2.06283 737.134 11.3634 832.704 98.7048C1008.71 259.564 1160.53 198.477 1167.13 198.477C1173.73 198.477 1208.93 228 1208.93 228H0Z" fill="#8982FF"/>
<path opacity="0.02" d="M0 228C0 228 53.9052 92.5974 258.518 104.812C391.522 112.782 448.302 83.7023 471.688 62.4023C500.797 35.9578 537.601 17.7876 577.883 11.8069C643.495 2.06283 737.134 11.3634 832.704 98.7048C1008.71 259.564 1160.53 198.477 1167.13 198.477C1173.73 198.477 1208.93 228 1208.93 228H0Z" fill="black"/>
<path d="M306.536 74.389H220.413V133.601H306.536V74.389Z" fill="#C2DBF7"/>
<path d="M212.91 71.9816L261.037 27.4429C261.386 27.1195 261.8 26.863 262.256 26.6879C262.711 26.5129 263.2 26.4228 263.693 26.4228C264.187 26.4228 264.676 26.5129 265.131 26.6879C265.587 26.863 266.001 27.1195 266.35 27.4429L314.094 71.6268C314.619 72.1117 314.977 72.7297 315.123 73.4028C315.268 74.076 315.195 74.774 314.912 75.4087C314.63 76.0433 314.15 76.5861 313.534 76.9685C312.918 77.3509 312.193 77.5557 311.451 77.5569L215.607 77.9116C214.861 77.9205 214.128 77.7232 213.504 77.3447C212.879 76.9662 212.391 76.4239 212.101 75.7871C211.812 75.1503 211.734 74.448 211.878 73.7701C212.022 73.0922 212.381 72.4694 212.91 71.9816Z" fill="#F3FCFD"/>
<path opacity="0.05" d="M212.91 71.9816L261.037 27.4429C261.386 27.1195 261.8 26.863 262.256 26.6879C262.711 26.5129 263.2 26.4228 263.693 26.4228C264.187 26.4228 264.676 26.5129 265.131 26.6879C265.587 26.863 266.001 27.1195 266.35 27.4429L314.094 71.6268C314.619 72.1117 314.977 72.7297 315.123 73.4028C315.268 74.076 315.195 74.774 314.912 75.4087C314.63 76.0433 314.15 76.5861 313.534 76.9685C312.918 77.3509 312.193 77.5557 311.451 77.5569L215.607 77.9116C214.861 77.9205 214.128 77.7232 213.504 77.3447C212.879 76.9662 212.391 76.4239 212.101 75.7871C211.812 75.1503 211.734 74.448 211.878 73.7701C212.022 73.0922 212.381 72.4694 212.91 71.9816Z" fill="black"/>
<path d="M262.365 106.89H264.091C266.669 106.89 269.141 107.838 270.964 109.525C272.788 111.212 273.812 113.501 273.812 115.887V133.626H252.644V115.887C252.644 113.501 253.668 111.212 255.491 109.525C257.314 107.838 259.787 106.89 262.365 106.89Z" fill="white"/>
<path d="M263.707 43.231C266.634 43.231 269.006 41.0356 269.006 38.3273C269.006 35.6191 266.634 33.4236 263.707 33.4236C260.781 33.4236 258.408 35.6191 258.408 38.3273C258.408 41.0356 260.781 43.231 263.707 43.231Z" fill="white"/>
<path d="M247.359 81.9537H227.15V96.196H247.359V81.9537Z" fill="white"/>
<path d="M238.213 81.9537H236.282V96.196H238.213V81.9537Z" fill="#6C63FF"/>
<path d="M301.237 81.9537H281.027V96.196H301.237V81.9537Z" fill="white"/>
<path d="M292.104 81.9537H290.174V96.196H292.104V81.9537Z" fill="#6C63FF"/>
<g opacity="0.2">
<path opacity="0.2" d="M619.562 11.6923C619.383 11.6555 619.562 11.6923 619.562 11.6923V11.6923Z" fill="url(#paint1_linear)"/>
</g>
<g opacity="0.2">
<path opacity="0.2" d="M621.547 48.4894H621.711C621.745 48.4775 621.775 48.4569 621.796 48.43C621.818 48.403 621.831 48.3709 621.834 48.3374C621.844 48.2872 621.844 48.2356 621.834 48.1854V48.0586C621.697 47.7545 621.382 47.3491 621.204 46.9943L621.122 46.8042C621.114 46.7199 621.114 46.6351 621.122 46.5507C621.122 46.5507 621.122 46.4748 621.122 46.4367L624.08 37.453L624.148 37.2376C624.148 37.2376 627.913 38.7327 628.885 41.7231C629.445 43.1735 629.474 44.7541 628.968 46.2213L628.899 46.3734H628.968V48.0206H633.075C633.363 47.8939 632.979 47.5645 632.596 47.235L632.5 47.1463L632.254 46.9056C632.184 46.8324 632.124 46.7515 632.076 46.6648L632.007 46.5128V46.4241H631.884V46.2847C632.397 44.0835 632.28 41.7963 631.546 39.6496C630.811 37.5028 629.483 35.5708 627.694 34.0445C628.685 31.3105 628.685 28.3522 627.694 25.6183C628.078 25.3649 635.54 20.3724 635.485 13.9102C635.507 13.5642 635.507 13.2173 635.485 12.8713C635.485 12.8713 636.128 12.377 635.485 11.4774V11.4014H635.416H634.965C634.67 11.4283 634.384 11.5148 634.129 11.6548C634.129 11.6548 633.705 12.9219 634.129 13.2514H634.02C634.02 13.2514 629.597 22.1211 626.64 23.3882L626.435 23.2741V22.1211C626.438 22.0704 626.438 22.0197 626.435 21.969C626.437 21.9226 626.437 21.876 626.435 21.8296C626.767 21.67 627.067 21.4602 627.324 21.2087C627.423 21.1129 627.514 21.0113 627.598 20.9046L627.708 20.7526L627.817 20.5752L627.9 20.4104C627.958 20.2911 628.009 20.1684 628.05 20.043V19.891V19.7009C628.05 19.7009 628.05 19.5995 628.05 19.5488C628.05 19.4855 628.05 19.4221 628.05 19.3461C628.05 18.9829 627.981 18.6225 627.845 18.2817C627.845 18.1888 627.804 18.0959 627.722 18.003L627.653 17.8636L627.557 17.7115C627.631 17.6273 627.719 17.5546 627.817 17.4961C628.007 17.3976 628.217 17.3371 628.434 17.3187H628.968H629.077C629.155 17.2898 629.229 17.2515 629.296 17.2047C629.4 17.1238 629.522 17.0634 629.652 17.0273H628.844H628.721H628.612H628.488H628.379H628.269H628.16H628.05H627.941L627.722 16.9386C627.835 16.9809 627.955 17.0066 628.078 17.0146H628.543H628.625L628.707 16.9513V16.8499H628.557H628.461C628.275 16.8734 628.086 16.8734 627.9 16.8499H627.502H627.324L627.16 16.7866C627.385 16.8622 627.634 16.852 627.851 16.7581C628.068 16.6642 628.236 16.4944 628.317 16.286C628.399 16.0777 628.388 15.8479 628.286 15.6471C628.185 15.4463 628.001 15.291 627.776 15.2154L627.927 15.1267C628.085 15.0014 628.183 14.824 628.201 14.6325C628.22 14.5532 628.22 14.471 628.201 14.3917L628.105 14.4677H628.023C627.764 14.6368 627.449 14.7175 627.133 14.6959H627.023C626.744 14.6294 626.473 14.536 626.215 14.4171L625.983 14.3411H625.914H625.723H625.613H625.462H624.737C623.714 14.3733 622.739 14.7521 621.998 15.4055C621.828 15.5615 621.672 15.731 621.533 15.9123C621.433 14.9841 621.619 14.0487 622.067 13.2133H621.985H621.738L621.615 13.4288C621.68 13.123 621.805 12.8308 621.985 12.5671H621.903C622.084 12.3789 622.185 12.1353 622.185 11.8829C622.185 11.6304 622.084 11.3868 621.903 11.1987C621.259 10.299 620.068 10.9959 620.068 10.9959C619.972 11.2891 619.908 11.5905 619.876 11.8956L619.684 11.8195C619.465 12.5038 617.028 20.3598 621.054 25.3775C621.048 25.4831 621.048 25.5888 621.054 25.6943V34.1585L618.315 45.7651L617.781 47.9573L621.629 48.5401L621.547 48.4894ZM622.231 21.0567C622.448 21.2233 622.688 21.3639 622.943 21.4748C622.935 21.5549 622.935 21.6355 622.943 21.7156V22.818L622.71 22.9194C622.532 22.3745 622.382 21.7409 622.217 21.0567H622.231Z" fill="url(#paint2_linear)"/>
</g>
<path d="M635.526 13.8596C635.526 13.8596 636.238 13.3021 635.526 12.3137C634.814 11.3253 633.5 12.0983 633.5 12.0983C633.5 12.0983 633.02 13.5302 633.5 13.8596C633.979 14.1891 635.526 13.8596 635.526 13.8596Z" fill="#CA7070"/>
<path d="M628.16 50.8084H631.446C631.434 50.9526 631.456 51.0975 631.51 51.2331C631.565 51.3687 631.65 51.4919 631.761 51.594C632.199 52.0628 633.13 52.633 632.678 52.861H628.16V50.8084Z" fill="#00695C"/>
<path opacity="0.2" d="M631.514 51.594C631.403 51.4919 631.318 51.3687 631.264 51.2331C631.209 51.0975 631.187 50.9526 631.199 50.8084H631.432C631.42 50.9526 631.442 51.0975 631.496 51.2331C631.551 51.3687 631.636 51.4919 631.747 51.594C632.185 52.0628 633.116 52.633 632.664 52.861H632.432C632.842 52.633 631.952 52.0628 631.514 51.594Z" fill="white"/>
<path d="M616.439 50.1873L619.561 50.6942C619.477 51.0323 619.525 51.3873 619.698 51.6952C620.04 52.3415 620.793 53.1778 620.342 53.3552L615.892 52.6836L616.439 50.1873Z" fill="#00695C"/>
<path d="M617.945 12.5164C617.945 12.5164 614.427 22.7927 620.328 28.482L622.039 27.2149C622.039 27.2149 618.548 16.001 620.506 13.3654C617.055 12.3644 617.945 12.5164 617.945 12.5164Z" fill="#00695C"/>
<path d="M620.383 13.416C620.383 13.416 621.095 12.8585 620.383 11.8702C619.671 10.8819 618.356 11.6548 618.356 11.6548C618.356 11.6548 617.877 13.0866 618.356 13.416C618.835 13.7455 620.383 13.416 620.383 13.416Z" fill="#CA7070"/>
<path opacity="0.2" d="M619.424 51.6446C619.251 51.3367 619.203 50.9817 619.287 50.6436L616.439 50.2128L619.561 50.6943C619.477 51.0324 619.525 51.3873 619.698 51.6953C620.04 52.3415 620.793 53.1778 620.342 53.3552H620.15C620.451 53.0511 619.753 52.2655 619.424 51.6446Z" fill="white"/>
<path d="M623.176 26.67H623.45C624.297 26.67 624.983 26.0347 624.983 25.2509V23.5023C624.983 22.7185 624.297 22.0831 623.45 22.0831H623.176C622.329 22.0831 621.642 22.7185 621.642 23.5023V25.2509C621.642 26.0347 622.329 26.67 623.176 26.67Z" fill="#CA7070"/>
<path opacity="0.2" d="M621.793 27.8864C621.793 27.8864 618.343 16.8119 620.218 14.0876H620.492H620.574C618.616 16.7232 622.108 27.9371 622.108 27.9371L620.396 29.2042L620.246 29.0521L621.793 27.8864Z" fill="white"/>
<path d="M623.244 23.6923C625.286 23.6923 626.941 22.1606 626.941 20.2711C626.941 18.3816 625.286 16.8499 623.244 16.8499C621.203 16.8499 619.548 18.3816 619.548 20.2711C619.548 22.1606 621.203 23.6923 623.244 23.6923Z" fill="#CA7070"/>
<path opacity="0.2" d="M624.559 25.1241V23.629C624.572 23.5195 624.572 23.409 624.559 23.2995C625.282 22.9573 625.864 22.404 626.213 21.7252C626.563 21.0465 626.661 20.28 626.493 19.5444C626.324 18.8088 625.899 18.1451 625.282 17.6558C624.665 17.1664 623.891 16.8788 623.08 16.8373H623.285C624.115 16.8364 624.92 17.0935 625.572 17.5674C626.225 18.0413 626.686 18.7044 626.882 19.4502C627.078 20.1959 626.997 20.9809 626.653 21.679C626.308 22.3772 625.72 22.9479 624.983 23.2995C624.996 23.409 624.996 23.5195 624.983 23.629V25.1241C624.983 25.5341 624.807 25.9273 624.494 26.2172C624.181 26.5072 623.756 26.67 623.313 26.67H623.107C623.511 26.6205 623.882 26.4361 624.149 26.1514C624.417 25.8666 624.562 25.5013 624.559 25.1241Z" fill="white"/>
<path d="M619.493 37.3264C619.493 37.3264 626.626 38.074 626.886 37.3264C628.004 34.282 628.004 30.9814 626.886 27.937C626.886 27.4877 626.791 27.0429 626.605 26.6278C626.419 26.2127 626.147 25.8356 625.804 25.5179C625.46 25.2002 625.053 24.9482 624.604 24.7763C624.156 24.6043 623.675 24.5159 623.19 24.5159C622.209 24.5159 621.269 24.8763 620.575 25.5179C619.882 26.1595 619.493 27.0297 619.493 27.937V37.3264Z" fill="#00695C"/>
<path d="M619.493 37.3264L616.275 51.0111H619.493L622.834 40.8742C622.834 40.8742 626.941 42.5341 628.078 45.8413C628.766 47.5099 628.766 49.3551 628.078 51.0237H631.542V50.8717C632.114 48.4322 631.982 45.8963 631.16 43.5188C630.338 41.1412 628.855 39.0056 626.859 37.3264" fill="#263238"/>
<path opacity="0.2" d="M626.407 37.3264C627.524 34.282 627.524 30.9814 626.407 27.9371C626.406 27.0681 626.047 26.2322 625.403 25.5991C624.76 24.9661 623.88 24.5833 622.943 24.5286H623.176C624.156 24.5286 625.097 24.8891 625.79 25.5307C626.483 26.1723 626.873 27.0425 626.873 27.9498C627.99 30.9941 627.99 34.2947 626.873 37.339C626.777 37.6051 625.805 37.6811 624.586 37.6684C625.64 37.6431 626.407 37.5544 626.407 37.3264Z" fill="white"/>
<path d="M626.941 27.8864C626.941 27.8864 636.526 21.7029 635.526 13.8723H633.39C633.39 13.8723 628.256 24.1358 624.983 25.1368C621.711 26.1378 626.941 27.8864 626.941 27.8864Z" fill="#00695C"/>
<g opacity="0.2">
<path opacity="0.2" d="M622.765 41.0889L619.493 51.061H619.013L622.354 40.9241L622.765 41.0889Z" fill="white"/>
<path opacity="0.2" d="M626.407 37.377H626.886C628.882 39.0563 630.365 41.1919 631.187 43.5694C632.009 45.947 632.141 48.4828 631.569 50.9223V51.0743H631.09V50.9223C631.662 48.4828 631.53 45.947 630.708 43.5694C629.886 41.1919 628.403 39.0563 626.407 37.377Z" fill="white"/>
</g>
<path opacity="0.2" d="M635.17 13.9482H635.526C636.484 21.7916 626.941 27.9624 626.941 27.9624L626.708 27.8737C627.776 27.1514 636.06 21.2848 635.17 13.9482Z" fill="white"/>
<path d="M626.188 18.7379C625.984 19.1798 625.841 19.6439 625.764 20.119C625.669 20.6049 625.469 21.0682 625.178 21.4816C624.886 21.8951 624.508 22.2504 624.066 22.5265C623.556 22.7826 622.989 22.9257 622.409 22.9446C621.972 22.995 621.528 22.9601 621.106 22.8422C620.683 22.7244 620.293 22.5263 619.958 22.2604C619.57 21.8707 619.309 21.3876 619.205 20.8667C619.021 20.0921 619.05 19.2872 619.289 18.5257C619.528 17.7641 619.97 17.0703 620.574 16.5078C621.188 15.9586 621.957 15.5805 622.793 15.4169C623.628 15.2533 624.496 15.3108 625.298 15.5828C625.587 15.7136 625.89 15.8157 626.202 15.887C626.448 15.9315 626.703 15.9177 626.943 15.8468C627.182 15.776 627.398 15.6503 627.571 15.4815C627.61 15.5962 627.619 15.7177 627.597 15.8363C627.576 15.9548 627.524 16.0668 627.447 16.1632C627.369 16.2597 627.268 16.3378 627.151 16.3911C627.035 16.4444 626.907 16.4713 626.777 16.4698C627.05 16.5917 627.347 16.6623 627.65 16.6775C627.954 16.6928 628.257 16.6523 628.543 16.5585C628.382 16.8742 628.097 17.1217 627.746 17.251C627.396 17.3803 627.005 17.3818 626.654 17.2554C627.325 17.5328 628.054 17.6712 628.79 17.6609C628.639 17.6609 628.338 17.927 628.146 17.9776C627.909 17.9967 627.671 17.9967 627.434 17.9776C627.169 17.9792 626.91 18.0519 626.689 18.1868C626.468 18.3218 626.294 18.5133 626.188 18.7379Z" fill="#263238"/>
<g opacity="0.2">
<path opacity="0.2" d="M626.681 16.4825C626.957 16.6034 627.255 16.6722 627.559 16.6852C627.163 16.7106 626.766 16.6408 626.407 16.4825C626.523 16.4829 626.638 16.461 626.744 16.4183C626.85 16.3755 626.946 16.3128 627.024 16.2342C627.103 16.1556 627.163 16.0627 627.201 15.9615C627.239 15.8603 627.253 15.753 627.244 15.6463L627.436 15.4941C627.474 15.6058 627.484 15.724 627.464 15.8397C627.445 15.9553 627.396 16.0652 627.323 16.1609C627.25 16.2565 627.155 16.3353 627.043 16.3911C626.932 16.4469 626.808 16.4782 626.681 16.4825Z" fill="white"/>
<path opacity="0.2" d="M625.942 15.887C625.629 15.8156 625.327 15.7136 625.038 15.5828C624.601 15.4223 624.138 15.3323 623.669 15.3168C624.235 15.2988 624.799 15.3893 625.325 15.5828C625.614 15.7136 625.917 15.8156 626.229 15.887H626.352C626.216 15.9061 626.078 15.9061 625.942 15.887Z" fill="white"/>
<path opacity="0.2" d="M627.776 17.9777C627.968 17.9777 628.269 17.6609 628.42 17.6609C627.684 17.6713 626.956 17.5329 626.284 17.2554C626.437 17.3114 626.599 17.3414 626.763 17.3441C627.371 17.5578 628.017 17.6611 628.666 17.6483C628.516 17.6483 628.214 17.9144 628.023 17.965C627.859 17.9888 627.693 17.9888 627.53 17.965L627.776 17.9777Z" fill="white"/>
<path opacity="0.2" d="M622.163 22.9441C622.742 22.9251 623.309 22.7821 623.819 22.526C624.262 22.2499 624.64 21.8946 624.931 21.4811C625.223 21.0676 625.422 20.6043 625.517 20.1185C625.595 19.6433 625.737 19.1793 625.942 18.7374C626.049 18.5336 626.214 18.3602 626.419 18.2353C626.623 18.1105 626.861 18.0388 627.105 18.0278H627.338C627.093 18.0388 626.856 18.1105 626.651 18.2353C626.447 18.3602 626.282 18.5336 626.174 18.7374C625.97 19.1793 625.828 19.6433 625.75 20.1185C625.655 20.6043 625.456 21.0676 625.164 21.4811C624.872 21.8946 624.494 22.2499 624.052 22.526C623.542 22.7821 622.975 22.9251 622.395 22.9441H622.163Z" fill="white"/>
<path opacity="0.2" d="M626.968 17.3568C627.221 17.3408 627.465 17.2663 627.678 17.1401C627.891 17.0138 628.066 16.84 628.187 16.6346L628.461 16.5586C628.33 16.817 628.117 17.032 627.85 17.1748C627.583 17.3175 627.276 17.3811 626.968 17.3568Z" fill="white"/>
</g>
<path opacity="0.2" d="M635.293 13.8596C635.293 13.8596 636.005 13.3021 635.293 12.3138C635.2 12.1695 635.07 12.0482 634.915 11.96C634.76 11.8718 634.585 11.8193 634.403 11.8069C634.623 11.7839 634.845 11.8193 635.044 11.9091C635.243 11.9989 635.41 12.1392 635.526 12.3138C636.238 13.3021 635.526 13.8596 635.526 13.8596C635.076 13.9511 634.617 13.9978 634.157 13.999C634.539 13.9811 634.919 13.9345 635.293 13.8596Z" fill="white"/>
<path d="M651.614 1.55592C651.614 1.55592 648.095 11.8322 653.996 17.5215L655.708 16.2544C655.708 16.2544 652.217 5.04051 654.174 2.40493C650.724 1.40392 651.614 1.55592 651.614 1.55592Z" fill="#FF5252"/>
<path d="M654.051 2.46833C654.051 2.46833 654.763 1.91077 654.051 0.922437C653.339 -0.0658932 652.025 0.707053 652.025 0.707053C652.025 0.707053 651.546 2.13888 652.025 2.46833C652.504 2.79777 654.051 2.46833 654.051 2.46833Z" fill="#F6B9AD"/>
<path d="M656.844 15.7222H657.118C657.965 15.7222 658.652 15.0868 658.652 14.303V12.5544C658.652 11.7706 657.965 11.1353 657.118 11.1353H656.844C655.998 11.1353 655.311 11.7706 655.311 12.5544V14.303C655.311 15.0868 655.998 15.7222 656.844 15.7222Z" fill="#F6B9AD"/>
<path opacity="0.2" d="M655.461 16.9767C655.461 16.9767 652.011 5.9022 653.887 3.17792H654.161H654.243C652.285 5.8135 655.776 17.0274 655.776 17.0274L654.065 18.2945L653.914 18.1424L655.461 16.9767Z" fill="white"/>
<path d="M656.913 12.7318C658.955 12.7318 660.61 11.2002 660.61 9.31071C660.61 7.42125 658.955 5.88953 656.913 5.88953C654.871 5.88953 653.216 7.42125 653.216 9.31071C653.216 11.2002 654.871 12.7318 656.913 12.7318Z" fill="#F6B9AD"/>
<path opacity="0.2" d="M658.227 14.1636V12.6812C658.24 12.5717 658.24 12.4612 658.227 12.3517C658.951 12.0095 659.532 11.4562 659.882 10.7775C660.231 10.0987 660.33 9.33232 660.161 8.59673C659.993 7.86114 659.567 7.19734 658.95 6.70799C658.334 6.21865 657.56 5.931 656.748 5.88953H656.954C657.783 5.88866 658.589 6.14585 659.241 6.61975C659.893 7.09365 660.354 7.75667 660.55 8.50238C660.746 9.24809 660.665 10.0331 660.321 10.7312C659.977 11.4294 659.389 12.0001 658.652 12.3517C658.664 12.4612 658.664 12.5717 658.652 12.6812V14.1763C658.652 14.5863 658.476 14.9795 658.162 15.2694C657.849 15.5593 657.424 15.7222 656.981 15.7222H656.776C657.182 15.6725 657.555 15.4862 657.822 15.1988C658.09 14.9114 658.234 14.543 658.227 14.1636Z" fill="white"/>
<path d="M653.161 26.3658C653.161 26.3658 660.295 27.1134 660.555 26.3658C661.404 23.9583 659.186 21.2974 660.267 20.0303C660.602 19.5825 660.804 19.0619 660.854 18.5197C660.905 17.9775 660.801 17.4325 660.555 16.9385C660.555 16.4893 660.459 16.0444 660.273 15.6294C660.088 15.2143 659.815 14.8371 659.472 14.5194C659.129 14.2017 658.721 13.9497 658.273 13.7778C657.824 13.6059 657.343 13.5173 656.858 13.5173C655.878 13.5173 654.937 13.8778 654.244 14.5194C653.551 15.161 653.161 16.0312 653.161 16.9385V26.3658Z" fill="#FF5252"/>
<path opacity="0.2" d="M660.281 20.0811C660.615 19.6334 660.818 19.1127 660.868 18.5706C660.918 18.0284 660.815 17.4834 660.569 16.9894C660.569 16.0821 660.179 15.2118 659.486 14.5702C658.793 13.9286 657.852 13.5682 656.872 13.5682H656.639C657.576 13.623 658.456 14.0057 659.099 14.6387C659.742 15.2718 660.101 16.1077 660.103 16.9767C660.35 17.4707 660.453 18.0157 660.402 18.5579C660.352 19.1001 660.15 19.6207 659.816 20.0684C658.665 21.3355 660.952 23.9457 660.103 26.4039C660.021 26.632 659.282 26.7207 658.309 26.7333C659.514 26.7333 660.486 26.67 660.582 26.4039C661.417 23.9584 659.131 21.3482 660.281 20.0811Z" fill="white"/>
<path d="M659.035 26.1505C661.785 30.1766 662.856 34.992 662.047 39.6958V39.8478H659.829C660.274 38.1449 660.274 36.3683 659.829 34.6654C659.408 32.6816 658.208 30.9123 656.461 29.6984L654.311 39.8352H652.244L654.311 26.1505H659.035Z" fill="#F6B9AD"/>
<path d="M671.591 6.45966C671.591 6.45966 672.453 6.13015 672.084 4.97709C671.714 3.82402 670.221 4.21686 670.221 4.21686C670.221 4.21686 669.304 5.48398 669.66 5.90213C670.016 6.32027 671.591 6.45966 671.591 6.45966Z" fill="#F6B9AD"/>
<path d="M658.926 17.5341C658.926 17.5341 670.002 14.2143 671.577 6.45966L669.523 5.87677C669.523 5.87677 661.308 14.303 657.912 14.3664C654.517 14.4297 658.926 17.5341 658.926 17.5341Z" fill="#FF5252"/>
<path opacity="0.2" d="M671.193 6.47241L671.536 6.5738C669.961 14.3284 658.884 17.6482 658.884 17.6482L658.693 17.5088C659.994 17.078 669.728 13.7075 671.193 6.47241Z" fill="white"/>
<g opacity="0.2">
<path opacity="0.2" d="M655.954 29.685L653.805 39.8218H654.284L656.365 29.9638C656.233 29.8646 656.096 29.7716 655.954 29.685Z" fill="white"/>
<path opacity="0.2" d="M659.035 26.1505H658.556C661.306 30.1766 662.377 34.992 661.568 39.6958V39.8478H662.006V39.6958C662.827 34.9966 661.771 30.1816 659.035 26.1505Z" fill="white"/>
</g>
<path opacity="0.2" d="M671.344 6.34572C671.344 6.34572 672.207 6.0163 671.837 4.86324C671.793 4.70119 671.708 4.55111 671.589 4.42551C671.47 4.29992 671.32 4.2024 671.152 4.14099C671.37 4.17763 671.572 4.27098 671.735 4.41012C671.897 4.54927 672.013 4.72845 672.07 4.92658C672.439 6.06696 671.577 6.40906 671.577 6.40906C671.112 6.37472 670.653 6.294 670.208 6.16831C670.581 6.25598 670.961 6.31533 671.344 6.34572Z" fill="white"/>
<path d="M653.161 25.9984L648.67 34.7666C651.295 34.8868 653.908 35.1789 656.488 35.6409C661.459 36.5152 663.827 34.3739 663.827 34.3739L660.637 25.9984H653.161Z" fill="#263238"/>
<path d="M654.352 39.7972C654.352 39.7972 656.721 40.2407 656.242 41.0644H651.984L652.216 39.7972H654.352Z" fill="#FF5252"/>
<path d="M661.924 39.7972C661.924 39.7972 664.293 40.2407 663.814 41.0644H659.555L659.788 39.7972H661.924Z" fill="#FF5252"/>
<path d="M660.267 6.49775C660.267 6.49775 654.585 13.9483 657.187 17.0146L647.014 16.7993C647.014 16.7993 649.848 -0.0784945 660.267 6.49775Z" fill="#FCCC63"/>
<path opacity="0.2" d="M660.267 6.49769C659.1 5.6985 657.735 5.18428 656.297 5.0025C657.274 5.2926 658.198 5.71995 659.035 6.26961C659.035 6.26961 653.353 13.7202 655.954 16.7866L647 16.5966V16.7866L657.173 17.002C654.585 13.9483 660.267 6.49769 660.267 6.49769Z" fill="white"/>
<path opacity="0.2" d="M660.637 25.9984H659.925L663.129 34.3233C661.804 35.3313 660.134 35.8703 658.419 35.8439C660.39 36.0231 662.357 35.4768 663.896 34.3233L660.637 25.9984Z" fill="white"/>
<path opacity="0.2" d="M654.352 39.7972H653.873C653.873 39.7972 656.242 40.2407 655.763 41.0644H656.242C656.721 40.228 654.352 39.7972 654.352 39.7972Z" fill="white"/>
<path opacity="0.2" d="M661.924 39.7972H661.445C661.445 39.7972 663.814 40.2407 663.334 41.0644H663.814C664.293 40.228 661.924 39.7972 661.924 39.7972Z" fill="white"/>
<defs>
<linearGradient id="paint0_linear" x1="604.5" y1="224.946" x2="604.5" y2="5.66147" gradientUnits="userSpaceOnUse">
<stop stop-color="#808080" stop-opacity="0.25"/>
<stop offset="0.54" stop-color="#808080" stop-opacity="0.12"/>
<stop offset="1" stop-color="#808080" stop-opacity="0.1"/>
</linearGradient>
<linearGradient id="paint1_linear" x1="3479.17" y1="22.0672" x2="3479.17" y2="22.0665" gradientUnits="userSpaceOnUse">
<stop stop-color="#808080" stop-opacity="0.25"/>
<stop offset="0.54" stop-color="#808080" stop-opacity="0.12"/>
<stop offset="1" stop-color="#808080" stop-opacity="0.1"/>
</linearGradient>
<linearGradient id="paint2_linear" x1="-47572.7" y1="25121.6" x2="-47572.7" y2="23992.4" gradientUnits="userSpaceOnUse">
<stop stop-color="#808080" stop-opacity="0.25"/>
<stop offset="0.54" stop-color="#808080" stop-opacity="0.12"/>
<stop offset="1" stop-color="#808080" stop-opacity="0.1"/>
</linearGradient>
</defs>
</svg>
