<svg width="30" height="30" viewBox="0 0 30 30" fill="none" xmlns="http://www.w3.org/2000/svg">
<path d="M15 30C23.2843 30 30 23.2843 30 15C30 6.71573 23.2843 0 15 0C6.71573 0 0 6.71573 0 15C0 23.2843 6.71573 30 15 30Z" fill="#007AB9"/>
<path d="M23.9624 16.2071V22.3913H20.3769V16.6216C20.3769 15.1728 19.8593 14.1835 18.5611 14.1835C17.5704 14.1835 16.9819 14.8496 16.722 15.4945C16.6276 15.725 16.6033 16.0451 16.6033 16.3683V22.391H13.0176C13.0176 22.391 13.0657 12.619 13.0176 11.6075H16.6035V13.1356C16.5963 13.1476 16.5862 13.1594 16.5797 13.1709H16.6035V13.1356C17.08 12.4024 17.9298 11.3543 19.8349 11.3543C22.1938 11.3543 23.9624 12.8955 23.9624 16.2071ZM9.26665 6.40942C8.04014 6.40942 7.2377 7.21453 7.2377 8.27232C7.2377 9.30766 8.01687 10.136 9.21959 10.136H9.24285C10.4934 10.136 11.271 9.30766 11.271 8.27232C11.2472 7.21453 10.4934 6.40942 9.26665 6.40942ZM7.45081 22.3913H11.0352V11.6075H7.45081V22.3913Z" fill="#F1F2F2"/>
</svg>
