<svg width="218" height="242" viewBox="0 0 218 242" fill="none" xmlns="http://www.w3.org/2000/svg">
<path d="M64.2946 90.8232L3.44477 79.5959L2.65397 79.4504C2.25126 79.3756 1.83205 79.3995 1.44453 79.5194C1.05701 79.6393 0.716926 79.8503 0.463389 80.1282C0.209851 80.4061 0.0531475 80.7395 0.0113114 81.0902C-0.0305248 81.4408 0.0442083 81.7945 0.226898 82.1104L24.3868 124.075C24.5431 124.345 24.7729 124.578 25.0568 124.756C25.3407 124.934 25.6704 125.051 26.0181 125.097C26.367 125.143 26.7237 125.116 27.0577 125.018C27.3916 124.92 27.6926 124.754 27.9347 124.535L44.7156 109.401C44.835 109.29 44.9798 109.202 45.1409 109.142C45.302 109.082 45.4759 109.051 45.6517 109.051C45.8906 109.048 46.126 109.101 46.3326 109.203C46.5391 109.306 46.7092 109.455 46.8245 109.634L50.2617 115.072C50.4811 115.435 50.836 115.724 51.2699 115.894C51.7039 116.064 52.1919 116.105 52.6562 116.011L52.6733 116.007C53.1433 115.922 53.5662 115.704 53.8739 115.389C54.1817 115.073 54.3565 114.678 54.3702 114.268L55.0587 101.715C55.0669 101.559 55.1127 101.405 55.1931 101.264C55.2794 101.125 55.3966 101.001 55.5381 100.9L65.2191 94.1026C65.5373 93.8792 65.7755 93.5836 65.9064 93.2498C66.0372 92.9159 66.0554 92.5573 65.9589 92.215C65.8624 91.8727 65.6551 91.5605 65.3607 91.3144C65.0664 91.0682 64.6969 90.898 64.2946 90.8232H64.2946ZM64.6663 93.5248L54.9853 100.322C54.8591 100.409 54.7448 100.508 54.6445 100.616L3.33479 80.7132C3.28954 80.6952 3.24233 80.6811 3.19384 80.6709C2.99593 80.6273 2.78642 80.6442 2.60154 80.7187C2.41665 80.7932 2.26802 80.9206 2.18135 81.079C2.09469 81.2373 2.07543 81.4165 2.12691 81.5857C2.1784 81.7548 2.29738 81.9033 2.4633 82.0054L44.6514 108.512C44.4373 108.607 44.244 108.733 44.08 108.884L27.2993 124.018C27.1537 124.149 26.9732 124.249 26.7733 124.307C26.5733 124.366 26.3598 124.382 26.1508 124.355C25.9418 124.328 25.7435 124.258 25.5729 124.152C25.4022 124.045 25.2641 123.905 25.1704 123.743L1.01051 81.7781C0.902503 81.5885 0.858929 81.3767 0.884759 81.167C0.91059 80.9572 1.00478 80.7579 1.1566 80.5917C1.30843 80.4255 1.51178 80.2991 1.74349 80.2269C1.9752 80.1548 2.22595 80.1397 2.46717 80.1835L3.27675 80.3331L64.1076 91.5563C64.3491 91.601 64.571 91.703 64.748 91.8506C64.9249 91.9982 65.0496 92.1854 65.1079 92.3908C65.1662 92.5963 65.1557 92.8115 65.0776 93.0121C64.9995 93.2126 64.8569 93.3903 64.6663 93.5248Z" fill="#6C63FF"/>
<path d="M77.2655 240.525C71.8073 239.264 65.1646 234.019 66.5867 226.811C67.292 223.236 69.999 220.922 72.8059 219.425C76.6884 217.355 81.1101 216.575 85.3712 216.378C90.2862 216.151 95.1956 216.724 100.074 217.33C104.89 217.929 109.706 218.464 114.543 218.791C133.472 220.061 152.516 218.852 171.018 215.205C175.584 214.303 180.123 213.246 184.635 212.032C188.91 210.956 193.09 209.62 197.143 208.034C202.507 205.831 211.23 201.545 210.519 193.607C210.142 189.398 207.244 186.037 204.321 183.695C200.786 180.863 196.697 179 192.691 177.19C174.059 168.775 155.391 160.459 136.742 152.093C132.389 150.141 128.007 148.241 123.783 145.953C119.828 143.811 115.892 141.323 112.709 137.883C109.929 134.878 107.445 130.844 107.533 126.334C107.605 122.594 109.595 119.421 112.032 117.049C118.065 111.177 126.6 108.796 134.314 107.549C143.897 106 153.619 106.008 163.209 104.511C170.952 103.303 179.225 100.971 185.523 95.5063C188.187 93.2835 190.071 90.4679 190.962 87.3774C191.767 84.1406 191.376 80.77 189.844 77.7313C188.138 74.2463 185.417 71.4701 182.556 69.1969C179.269 66.6219 175.541 64.4918 171.502 62.8804C162.997 59.4139 154.053 57.609 145.341 54.9487C141.069 53.6441 136.753 52.2134 132.786 49.9725C129.425 48.0739 125.763 45.5148 123.893 41.7093C120.035 33.8575 129.239 29.1779 134.455 27.4053C138 26.2553 141.651 25.3613 145.371 24.7325C146.157 24.5881 145.823 23.2454 145.041 23.3892C141.126 24.042 137.289 25.0003 133.578 26.252C130.433 27.3697 127.188 28.8385 124.717 31.3661C123.592 32.5074 122.761 33.8381 122.276 35.2721C121.792 36.706 121.665 38.2111 121.905 39.6895C122.559 43.4569 125.404 46.3598 128.075 48.4624C131.608 51.2428 135.636 53.0587 139.719 54.5389C144.02 56.0978 148.413 57.3127 152.804 58.5044C161.577 60.8857 170.745 63.0078 178.665 68.0749C184.206 71.6196 191.732 78.2657 189.889 86.5036C189.071 90.1604 186.587 93.0195 183.906 95.1224C180.757 97.5192 177.127 99.4074 173.19 100.695C155.638 106.737 136.322 102.416 119.223 110.622C113.409 113.412 106.347 118.492 106.29 126.485C106.261 130.636 108.206 134.444 110.612 137.454C113.493 141.059 117.224 143.725 121.02 145.953C125.018 148.213 129.168 150.268 133.45 152.108C138.127 154.209 142.805 156.308 147.485 158.404L175.882 171.141L189.992 177.47C194.298 179.401 198.715 181.254 202.63 184.089C205.836 186.411 209.624 190.22 209.297 194.949C209.037 198.705 206.12 201.415 203.454 203.228C200.002 205.574 196.125 207.092 192.267 208.353C187.817 209.808 183.294 211.014 178.762 212.099C169.479 214.319 160.005 215.905 150.429 216.843C140.877 217.783 131.254 218.09 121.646 217.76C116.792 217.593 111.945 217.261 107.105 216.764C102.117 216.25 97.1502 215.458 92.149 215.107C87.6253 214.789 83.0581 214.863 78.6031 215.884C74.8834 216.737 70.9536 218.257 68.13 221.222C66.0488 223.486 65.0066 226.322 65.1995 229.197C65.3907 232.067 66.5867 234.82 68.6321 237.1C70.7097 239.429 73.6289 241.105 76.9356 241.868C77.7153 242.048 78.0488 240.706 77.2656 240.525L77.2655 240.525Z" fill="#E6E6E6"/>
<path d="M218 241.161L76.1821 241.161V242L218 242V241.161Z" fill="#3F3D56"/>
<path d="M206.638 201.647C211.754 201.647 215.902 198.099 215.902 193.722C215.902 189.346 211.754 185.798 206.638 185.798C201.521 185.798 197.373 189.346 197.373 193.722C197.373 198.099 201.521 201.647 206.638 201.647Z" fill="#E6E6E6"/>
<path d="M189.735 89.9599C194.852 89.9599 199 86.4121 199 82.0357C199 77.6593 194.852 74.1116 189.735 74.1116C184.619 74.1116 180.471 77.6593 180.471 82.0357C180.471 86.4121 184.619 89.9599 189.735 89.9599Z" fill="#E6E6E6"/>
<path d="M168.789 0.330111L143.064 9.89527C141.928 10.319 141.035 11.1109 140.581 12.0973C140.126 13.0836 140.148 14.1839 140.641 15.1566L148.629 30.8729C149.124 31.8447 150.05 32.6087 151.203 32.9973C152.356 33.3859 153.643 33.3674 154.78 32.9459L180.505 23.3807C181.641 22.9569 182.534 22.165 182.988 21.1787C183.443 20.1923 183.421 19.0921 182.928 18.1193L174.94 2.40306C174.445 1.43128 173.519 0.667278 172.366 0.27866C171.213 -0.109959 169.926 -0.0914545 168.789 0.330111ZM169.854 2.42562C170.008 2.36903 170.17 2.32924 170.335 2.30719L161.638 16.3422L143.775 12.1611C143.886 12.0942 144.005 12.0371 144.129 11.9908L169.854 2.42562ZM179.44 21.2852L153.715 30.8503C153.228 31.031 152.676 31.0389 152.182 30.8724C151.688 30.7058 151.291 30.3784 151.079 29.9619L143.162 14.3868L161.965 18.7877C162.257 18.8562 162.569 18.8374 162.847 18.7343C163.126 18.6313 163.355 18.4501 163.497 18.2207L172.6 3.53046L180.478 19.0303C180.69 19.4472 180.699 19.9187 180.504 20.3414C180.309 20.7642 179.927 21.1036 179.44 21.2852Z" fill="#E6E6E6"/>
<path d="M139.936 136.656C152.872 136.656 163.359 127.686 163.359 116.621C163.359 105.556 152.872 96.5867 139.936 96.5867C126.999 96.5867 116.512 105.556 116.512 116.621C116.512 127.686 126.999 136.656 139.936 136.656Z" fill="#6C63FF"/>
<path d="M136.245 241.407H129.785C129.031 241.406 128.308 241.15 127.774 240.694C127.241 240.238 126.941 239.619 126.94 238.974L126.94 192.924C126.941 192.279 127.241 191.661 127.774 191.205C128.308 190.749 129.031 190.492 129.785 190.491H136.245C136.999 190.492 137.722 190.749 138.255 191.205C138.789 191.661 139.089 192.279 139.09 192.924V238.974C139.089 239.619 138.789 240.238 138.255 240.694C137.722 241.15 136.999 241.406 136.245 241.407Z" fill="#2F2E41"/>
<path d="M149.021 241.407H142.561C141.807 241.406 141.084 241.15 140.551 240.694C140.017 240.238 139.717 239.619 139.717 238.974V192.924C139.717 192.279 140.017 191.661 140.551 191.205C141.084 190.749 141.807 190.492 142.561 190.491H149.021C149.776 190.492 150.499 190.749 151.032 191.205C151.565 191.661 151.865 192.279 151.866 192.924V238.974C151.865 239.619 151.565 240.238 151.032 240.694C150.499 241.15 149.776 241.406 149.021 241.407Z" fill="#2F2E41"/>
<path d="M175.79 188.109C175.507 188.109 175.224 188.073 174.953 188.001C174.595 187.908 174.263 187.756 173.975 187.552C173.687 187.349 173.448 187.098 173.274 186.815L148.036 146.139C147.861 145.856 147.753 145.547 147.717 145.229C147.682 144.911 147.72 144.59 147.829 144.285C147.939 143.979 148.117 143.695 148.355 143.449C148.593 143.203 148.885 142.999 149.215 142.849L154.921 140.259C155.251 140.109 155.613 140.016 155.984 139.986C156.356 139.955 156.732 139.988 157.089 140.081C157.446 140.175 157.778 140.328 158.066 140.532C158.354 140.735 158.593 140.985 158.768 141.267L184.006 181.944C184.181 182.226 184.289 182.535 184.325 182.853C184.36 183.172 184.322 183.492 184.213 183.798C184.103 184.104 183.924 184.388 183.687 184.634C183.449 184.88 183.156 185.084 182.826 185.234L177.12 187.824C176.711 188.011 176.254 188.109 175.79 188.109Z" fill="#6C63FF"/>
<path d="M123.252 150.616C122.91 150.616 122.572 150.563 122.252 150.46H122.252L71.8863 134.186C71.537 134.073 71.2171 133.902 70.9449 133.683C70.6728 133.465 70.4537 133.202 70.3002 132.911C70.1468 132.62 70.0619 132.305 70.0506 131.986C70.0392 131.667 70.1015 131.349 70.234 131.05L72.5125 125.881C72.7814 125.278 73.3185 124.791 74.0064 124.526C74.6942 124.261 75.4768 124.24 76.1828 124.467L126.547 140.738C127.252 140.967 127.821 141.425 128.132 142.013C128.442 142.6 128.468 143.269 128.204 143.873L125.922 149.042C125.715 149.505 125.35 149.903 124.873 150.184C124.396 150.466 123.831 150.616 123.252 150.616Z" fill="#6C63FF"/>
<path d="M154.345 140.136H124.994C123.544 140.136 122.368 141.142 122.368 142.383L122.368 195.718C122.368 196.958 123.544 197.964 124.994 197.964H154.345C155.795 197.964 156.971 196.958 156.971 195.718V142.383C156.971 141.142 155.795 140.136 154.345 140.136Z" fill="#2F2E41"/>
<path d="M142.525 123.31C141.078 123.276 139.277 123.233 137.89 122.366C137.477 122.097 137.138 121.754 136.896 121.362C136.654 120.969 136.515 120.536 136.49 120.093C136.465 119.778 136.525 119.462 136.666 119.17C136.807 118.878 137.026 118.618 137.304 118.411C138.028 117.887 139.086 117.764 140.227 118.051L139.045 110.667L139.913 110.565L141.301 119.246L140.577 118.962C139.738 118.633 138.585 118.465 137.869 118.982C137.693 119.118 137.556 119.286 137.469 119.474C137.381 119.662 137.346 119.864 137.365 120.066C137.386 120.396 137.49 120.718 137.67 121.011C137.849 121.303 138.101 121.559 138.407 121.761C139.486 122.436 140.921 122.523 142.55 122.562L142.525 123.31Z" fill="#2F2E41"/>
<path d="M134.757 111.303H130.042V112.052H134.757V111.303Z" fill="#2F2E41"/>
<path d="M149.637 111.303H144.923V112.052H149.637V111.303Z" fill="#2F2E41"/>
<path d="M122.329 150.285L101.63 144.886C100.985 144.718 100.44 144.343 100.109 143.84C99.7773 143.338 99.6851 142.745 99.8511 142.185L102.267 134.042C102.363 133.72 102.541 133.42 102.788 133.164C103.035 132.908 103.345 132.703 103.696 132.561C104.047 132.42 104.431 132.347 104.819 132.348C105.207 132.349 105.59 132.423 105.94 132.566L126.47 140.912C127.121 141.124 127.647 141.547 127.934 142.089C128.22 142.631 128.244 143.249 128 143.806L125.717 148.976C125.47 149.533 124.975 149.984 124.339 150.23C123.704 150.475 122.981 150.495 122.329 150.285Z" fill="#2F2E41"/>
<path d="M148.408 145.678L157.285 162.558C157.562 163.084 158.065 163.499 158.69 163.717C159.315 163.934 160.015 163.938 160.643 163.726L169.782 160.647C170.143 160.525 170.468 160.336 170.734 160.094C170.999 159.852 171.199 159.563 171.318 159.247C171.437 158.932 171.473 158.597 171.424 158.268C171.374 157.939 171.239 157.623 171.03 157.344L158.755 140.98C158.427 140.454 157.87 140.061 157.205 139.887C156.54 139.712 155.82 139.77 155.205 140.048L149.498 142.638C148.883 142.918 148.422 143.395 148.218 143.965C148.014 144.535 148.082 145.151 148.408 145.678Z" fill="#2F2E41"/>
<path d="M64.2946 90.8232L3.44477 79.5959L2.65397 79.4504C2.25126 79.3756 1.83205 79.3995 1.44453 79.5194C1.05701 79.6393 0.716926 79.8503 0.463389 80.1282C0.209851 80.4061 0.0531475 80.7395 0.0113114 81.0902C-0.0305248 81.4408 0.0442083 81.7945 0.226898 82.1104L24.3868 124.075C24.5431 124.345 24.7729 124.578 25.0568 124.756C25.3407 124.934 25.6704 125.051 26.0181 125.097C26.367 125.143 26.7237 125.116 27.0577 125.018C27.3916 124.92 27.6926 124.754 27.9347 124.535L44.7156 109.401C44.835 109.29 44.9798 109.202 45.1409 109.142C45.302 109.082 45.4759 109.051 45.6517 109.051C45.8906 109.048 46.126 109.101 46.3326 109.203C46.5391 109.306 46.7092 109.455 46.8245 109.634L50.2617 115.072C50.4811 115.435 50.836 115.724 51.2699 115.894C51.7039 116.064 52.1919 116.105 52.6562 116.011L52.6733 116.007C53.1433 115.922 53.5662 115.704 53.8739 115.389C54.1817 115.073 54.3565 114.678 54.3702 114.268L55.0587 101.715C55.0669 101.559 55.1127 101.405 55.1931 101.264C55.2794 101.125 55.3966 101.001 55.5381 100.9L65.2191 94.1026C65.5373 93.8792 65.7755 93.5836 65.9064 93.2498C66.0372 92.9159 66.0554 92.5573 65.9589 92.215C65.8624 91.8727 65.6551 91.5605 65.3607 91.3144C65.0664 91.0682 64.6969 90.898 64.2946 90.8232H64.2946ZM64.6663 93.5248L54.9853 100.322C54.8591 100.409 54.7448 100.508 54.6445 100.616C54.554 100.713 54.4759 100.818 54.4115 100.929C54.344 101.042 54.2907 101.162 54.2527 101.285L54.2537 101.289C54.2136 101.417 54.1904 101.548 54.1847 101.681L53.4964 114.234C53.4906 114.48 53.3868 114.718 53.2021 114.908C53.0173 115.097 52.7626 115.228 52.4798 115.277L52.4713 115.279C52.1926 115.338 51.8988 115.315 51.6374 115.213C51.3759 115.112 51.1623 114.938 51.031 114.719L47.5929 109.278C47.4158 108.998 47.1579 108.761 46.8439 108.591C46.5299 108.42 46.1701 108.321 45.7986 108.302L45.7944 108.303C45.7444 108.301 45.6946 108.299 45.6458 108.301C45.2992 108.301 44.9578 108.373 44.6514 108.512C44.4373 108.607 44.244 108.733 44.08 108.884L27.2993 124.018C27.1537 124.149 26.9733 124.249 26.7733 124.307C26.5734 124.366 26.3598 124.382 26.1508 124.355C25.9418 124.328 25.7436 124.258 25.5729 124.152C25.4022 124.045 25.2641 123.905 25.1704 123.743L1.01051 81.7781C0.902503 81.5885 0.858929 81.3767 0.884759 81.167C0.91059 80.9572 1.00478 80.7579 1.1566 80.5917C1.30843 80.4255 1.51178 80.2991 1.74349 80.2269C1.9752 80.1548 2.22595 80.1397 2.46717 80.1835L3.27675 80.3331L64.1076 91.5563C64.3491 91.601 64.571 91.703 64.748 91.8506C64.9249 91.9982 65.0496 92.1854 65.1079 92.3908C65.1662 92.5963 65.1557 92.8115 65.0776 93.0121C64.9995 93.2126 64.8569 93.3903 64.6663 93.5248Z" fill="#3F3D56"/>
<path d="M54.8386 100.691L54.477 101.373L54.2537 101.289L54.2527 101.285L2.98365 81.4009L45.7944 108.303L45.7986 108.302L45.9119 108.377L45.3957 108.98L44.6514 108.512L2.46328 82.0054C2.29737 81.9033 2.17838 81.7549 2.1269 81.5857C2.07541 81.4165 2.09467 81.2373 2.18134 81.079C2.268 80.9207 2.41664 80.7932 2.60152 80.7187C2.7864 80.6442 2.99592 80.6273 3.19383 80.6709C3.24232 80.6811 3.28952 80.6952 3.33478 80.7132L54.6445 100.616L54.8386 100.691Z" fill="#3F3D56"/>
</svg>
