<svg width="30" height="30" viewBox="0 0 30 30" fill="none" xmlns="http://www.w3.org/2000/svg">
<path d="M15 30C23.2843 30 30 23.2843 30 15C30 6.71573 23.2843 0 15 0C6.71573 0 0 6.71573 0 15C0 23.2843 6.71573 30 15 30Z" fill="#B0271E"/>
<path d="M19.1173 8.5573C18.7842 8.54096 18.1613 8.16367 17.8283 8.03043C16.0101 7.42439 13.9899 6.8183 12.2727 7.42439C7.52518 8.93957 9.64639 14.4951 9.34341 18.2325C9.34341 18.628 9.20624 18.9619 9.08319 19.3624L19.1406 29.421C24.1686 27.98 28.1144 23.9805 29.4811 18.9215L19.1173 8.5573Z" fill="#961411"/>
<path d="M21.9335 19.8887C21.9335 19.8887 21.8494 21.1213 20.7289 21.1213C19.8635 21.1213 19.2725 20.4612 18.7191 19.6042C20.2909 18.2321 21.2891 16.1832 21.2891 13.8937C21.2891 9.76281 18.0407 6.41406 14.0335 6.41406C10.0263 6.41406 6.77795 9.76287 6.77795 13.8937C6.77795 18.0246 10.0263 21.3735 14.0335 21.3735C14.7608 21.3735 15.4627 21.2627 16.1251 21.0574C16.9631 22.3887 18.027 23.5858 19.6923 23.5858C23.0819 23.5858 23.222 19.8887 23.222 19.8887H21.9335ZM14.0336 20.1408C11.6973 20.1408 9.80344 17.3438 9.80344 13.8937C9.80344 10.4436 11.6973 7.64664 14.0336 7.64664C16.3698 7.64664 18.2637 10.4436 18.2637 13.8937C18.2637 15.2656 17.964 16.534 17.4563 17.5646C16.8828 16.7458 16.1944 16.0487 15.2102 15.8267C13.4642 15.4329 11.9606 16.2189 11.4843 16.6111L11.9325 17.5356C11.9325 17.5356 12.3856 17.2751 13.5091 17.5353C14.217 17.6992 14.7672 18.6817 15.3976 19.8088C14.9697 20.024 14.5108 20.1408 14.0336 20.1408Z" fill="white"/>
<path d="M21.9334 19.8887C21.9334 19.8887 21.8494 21.1213 20.7288 21.1213C19.8634 21.1213 19.2724 20.4612 18.719 19.6042C20.2909 18.2321 21.2889 16.1832 21.2889 13.8937C21.2889 9.76281 18.0406 6.41406 14.0334 6.41406C14.0301 6.41406 14.0268 6.41424 14.0235 6.41436V7.64711C14.0268 7.64711 14.0301 7.6467 14.0334 7.6467C16.3697 7.6467 18.2635 10.4437 18.2635 13.8938C18.2635 15.2657 17.9638 16.5341 17.4562 17.5647C16.8826 16.7459 16.1942 16.0488 15.21 15.8267C14.7975 15.7337 14.3987 15.7072 14.0236 15.7251V17.8097C14.5026 18.2101 14.9278 18.9691 15.3976 19.8089C14.9696 20.0242 14.5108 20.141 14.0335 20.141C14.0302 20.141 14.027 20.1406 14.0236 20.1406V21.3733C14.027 21.3733 14.0302 21.3736 14.0335 21.3736C14.7608 21.3736 15.4627 21.2628 16.1251 21.0576C16.9631 22.3889 18.027 23.586 19.6923 23.586C23.0819 23.586 23.222 19.8889 23.222 19.8889H21.9334V19.8887Z" fill="#D1D1D1"/>
</svg>
