<svg width="473" height="434" viewBox="0 0 473 434" fill="none" xmlns="http://www.w3.org/2000/svg">
<g clip-path="url(#clip0)">
<path d="M386.378 6.08311C371.858 14.4578 358.125 23.3597 344.477 32.8864C332.055 40.9705 316.836 49.442 306.944 60.3572C301.342 66.2239 309.106 75.9662 317.152 72.3064C317.152 72.3064 317.851 72.2095 317.765 71.5852C320.036 72.5433 321.608 73.5981 323.964 75.1807C324.051 75.8051 324.922 76.9571 325.009 77.5815C325.881 78.7333 327.452 79.7883 329.025 80.8431C313.416 117.368 299.204 153.698 279.752 188.21C274.057 198.544 267.574 208.351 259.608 217.726C232.82 188.984 191.352 157.184 148.247 170.154C91.5024 187.56 130.668 238.768 163.333 253.334C202.197 271.495 232.794 265.984 260.536 239.87C277.463 259.161 290.541 281.529 292.341 304.825C297.94 360.684 243.293 377.797 194.45 369.927C199.195 352.725 198.698 333.705 192.254 318.052C181.196 289.675 127.214 270.427 100.697 295.099C74.8792 319.674 135.99 364.662 154.943 372.855C160.271 375.299 166.298 377.645 172.238 379.367C171.625 380.089 171.712 380.714 171.099 381.434C145.158 430.844 97.1382 398.043 73.1469 368.912C69.6578 364.305 62.5709 369.741 65.3607 374.445C86.0284 405.308 124.258 439.466 165.2 410.887C174.912 403.814 182.878 394.438 187.788 383.577C228.153 391.985 272.909 385.786 296.556 350.693C324.934 308.582 297.21 262.788 269.816 229.675C270.428 228.953 270.428 228.953 271.042 228.232C306.145 188.371 323.875 136.281 342.996 89.0883C348.324 91.532 354.352 93.8787 359.678 96.3226C363.435 97.7112 368.244 96.4088 370.694 93.524C388.033 69.4867 399.872 41.7569 400.876 12.9827C402.022 5.82514 393.639 1.89563 386.378 6.08311ZM233.791 242.301C209.12 259.718 180.211 246.541 158.382 233.02C129.567 215.376 131.804 180.067 172.615 181.415C193.414 182.352 211.747 196.357 226.85 207.628C234.794 213.528 242.913 220.674 250.417 228.544C245.428 233.69 239.652 238.308 233.791 242.301ZM178.202 365.815C178.202 365.815 177.503 365.911 178.202 365.815C158.11 359.69 142.394 349.139 129.043 335.081C123.197 328.891 117.963 321.98 114.741 314.154C104.807 293.894 144.04 299.278 154.436 302.292C182.825 311.723 184.879 341.982 178.202 365.815ZM360.054 78.4541C359.355 78.551 359.268 77.9266 358.569 78.0235C358.309 76.1504 356.65 74.4712 353.681 73.6098C348.527 72.4148 343.286 70.5954 338.043 68.7762C335.772 67.8181 331.058 64.6531 331.231 65.9018C331.144 65.2775 330.358 64.75 329.659 64.8468C336.831 60.0353 343.833 53.9748 351.005 49.1632C360.104 42.8122 369.901 36.3644 379.7 29.9163C376.97 46.2031 370.041 63.0713 360.054 78.4541Z" fill="#B2B8F1"/>
</g>
<defs>
<clipPath id="clip0">
<rect width="423.749" height="378.337" fill="white" transform="translate(0.496521 58.5656) rotate(-7.8863)"/>
</clipPath>
</defs>
</svg>
