<svg width="30" height="30" viewBox="0 0 30 30" fill="none" xmlns="http://www.w3.org/2000/svg">
<path d="M15 30C23.2843 30 30 23.2843 30 15C30 6.71573 23.2843 0 15 0C6.71573 0 0 6.71573 0 15C0 23.2843 6.71573 30 15 30Z" fill="#78BAEB"/>
<path d="M15 0C14.3369 0 13.6839 0.0435938 13.0435 0.126973C20.4033 1.08574 26.087 7.37889 26.087 15C26.087 22.6211 20.4032 28.9143 13.0435 29.873C13.6839 29.9564 14.3369 30 15 30C23.2843 30 30 23.2842 30 15C30 6.71578 23.2843 0 15 0Z" fill="#59AAE7"/>
<path d="M12.0812 23.5109C10.7036 23.5109 9.35352 23.263 8.06856 22.7744L6.7952 22.2901C6.65592 22.2371 6.6752 22.0343 6.82197 22.0085L8.16383 21.7729C9.40702 21.5546 10.5826 21.0484 11.5902 20.301C11.6965 20.2221 11.6537 20.0562 11.5227 20.037C10.3494 19.8649 9.29604 19.1554 8.705 18.1143L8.40377 17.5837C8.34975 17.4886 8.41514 17.37 8.5243 17.3647L9.13373 17.3356C9.13579 17.3355 9.13778 17.3354 9.13989 17.3352C9.29293 17.3277 9.3295 17.1193 9.19034 17.0549C8.07389 16.5381 7.26512 15.5002 7.05735 14.2575L6.96448 13.702C6.94719 13.5987 7.04065 13.5111 7.1426 13.5349L7.69092 13.6634C7.98278 13.7318 8.28448 13.7665 8.5877 13.7665C8.59127 13.7665 8.59485 13.7665 8.59848 13.7665C7.42918 13.0176 6.73455 11.7518 6.73455 10.3586C6.73455 10.0121 6.77803 9.66934 6.86387 9.33981L7.02782 8.71016C7.05629 8.60076 7.19258 8.56338 7.27291 8.64277L7.73563 9.10027C8.95766 10.3086 10.4582 11.2388 12.0753 11.7904C12.5035 11.9261 13.802 12.2945 14.2516 12.2963L14.2626 12.2964C14.2642 12.2964 14.3939 12.3011 14.4781 12.3051C14.4776 12.2814 14.4772 12.2577 14.4772 12.234C14.4772 9.78547 16.4692 7.79346 18.9177 7.79346C20.0869 7.79346 21.1846 8.24135 22.019 9.05686C22.052 9.08908 22.0979 9.10479 22.1435 9.09787C22.5726 9.03277 22.9995 8.93006 23.4101 8.79254L24.779 8.33387C24.9225 8.28582 25.0359 8.46002 24.9341 8.57176L23.9614 9.63869C23.8318 9.78084 23.6926 9.91314 23.5446 10.0348C23.4274 10.1312 23.5146 10.3208 23.6637 10.2928C23.7963 10.2679 23.9281 10.2398 24.0585 10.2085L25.3143 9.90723C25.4571 9.87301 25.5561 10.0465 25.4538 10.152L24.5548 11.079C24.1908 11.4544 23.7873 11.7989 23.3552 12.103L23.3559 12.1242C23.3572 12.1607 23.3583 12.1972 23.3583 12.234V12.2782C23.3329 18.4729 18.274 23.5109 12.0812 23.5109Z" fill="#FCFCFC"/>
</svg>
